<svg width="198" height="42" viewBox="0 0 198 42" fill="none" xmlns="http://www.w3.org/2000/svg">
<path opacity="0.3" d="M30.3989 4.21331L21.9138 18.9701L17.5605 11.5179H24.57L26.9311 7.38602H11.5103L24.57 30.0376L41.8354 0.0814209H0L23.6108 41.0314H27.3L6.05027 4.21331H30.3989ZM36.9657 11.4441H38.9578L26.4146 33.1366L30.9892 41.0314L50.3943 7.38602H39.3268L36.9657 11.4441ZM71.2751 18.0847C72.8246 17.273 73.9313 15.3547 73.9313 13.1412C73.9313 9.08304 70.1684 7.38602 66.4792 7.38602H60.5027V30.0376H67.9549C73.1935 30.0376 76.3662 27.529 76.3662 23.766C76.3662 20.4457 74.2265 18.3798 71.2751 18.0847ZM62.79 9.37818H66.4054C69.8732 9.37818 71.6441 10.9276 71.6441 13.3625C71.6441 16.0925 70.0946 17.3468 67.5859 17.3468H62.79V9.37818ZM67.8073 28.0455H62.79V19.1914H68.25C71.9392 19.1914 74.0789 20.6671 74.0789 23.6184C74.0789 26.7912 71.1276 28.0455 67.8073 28.0455ZM93.7054 14.1741C93.7054 9.7471 90.4589 7.38602 85.9581 7.38602H79.3176V30.0376H81.6049V9.37818H85.7367C89.1308 9.37818 91.4181 11.2228 91.4181 14.1741C91.4181 16.8303 89.2784 18.6012 85.663 18.6012H84.2611L91.7132 30.0376H94.517L87.8765 20.372C91.1967 20.003 93.7054 17.4944 93.7054 14.1741ZM169.26 6.64818C162.619 6.64818 157.233 12.0344 157.233 18.6749C157.233 25.3155 162.619 30.7017 169.26 30.7017C175.901 30.7017 181.287 25.3155 181.287 18.6749C181.287 12.0344 175.901 6.64818 169.26 6.64818ZM169.26 28.7095C163.874 28.7095 159.521 24.2087 159.521 18.6749C159.521 13.1412 163.874 8.64034 169.26 8.64034C174.646 8.64034 178.999 13.1412 178.999 18.6749C178.999 24.2087 174.646 28.7095 169.26 28.7095ZM190.362 17.4206C187.854 16.609 185.419 15.8712 185.419 12.9936C185.419 10.116 188.001 8.71412 190.215 8.71412C192.354 8.71412 193.904 9.59953 194.863 11.0014L196.708 9.52575C195.601 8.05007 193.313 6.79575 190.288 6.79575C186.968 6.79575 183.058 8.64034 183.058 13.0674C183.058 17.1993 186.156 18.4536 189.108 19.4128C191.985 20.2982 194.642 21.1098 194.642 24.2825C194.642 27.1601 191.985 28.6357 189.624 28.6357C187.263 28.6357 185.419 27.3814 184.459 25.7582L182.467 27.2339C184.091 29.4474 186.821 30.6279 189.624 30.6279C193.24 30.6279 197.003 28.6357 197.003 24.1349C197.15 19.4866 193.609 18.5274 190.362 17.4206ZM155.167 7.38602L146.83 26.5698L138.492 7.38602H135.91L146.83 31.7347L157.676 7.38602H155.167ZM95.6976 30.0376H98.2062L106.544 10.8539L114.881 30.0376H117.464L106.544 5.68899L95.6976 30.0376ZM118.571 30.0376H121.079L129.417 10.8539L137.754 30.0376H140.337L129.417 5.68899L118.571 30.0376Z" fill="#13131A"/>
</svg>
