<svg width="126" height="43" viewBox="0 0 126 43" fill="none" xmlns="http://www.w3.org/2000/svg">
<path opacity="0.3" d="M70.944 24.2485H85.8806C86.1316 28.3524 85.1902 31.825 82.8682 35.045C77.3454 42.6846 60.6516 43.316 55.3171 31.5724C52.3675 25.0693 52.3675 18.4399 55.4427 11.9999C58.5806 5.37049 64.1033 2.3399 71.3833 2.78186C77.9102 3.16068 82.3661 6.5701 84.5627 12.7575C85.1275 14.2728 86.0061 14.0203 87.2613 13.7677C87.1358 13.1995 87.073 12.6313 86.8847 12.1262C85.3158 6.94892 81.864 3.60264 76.7806 1.77166C75.5254 1.3297 74.2702 1.01402 73.0151 0.635193H67.1785C66.802 0.761467 66.4254 0.950879 66.0489 1.07715C60.2751 2.27676 56.0702 5.49676 53.3089 10.7372C50.9868 15.1568 50.4847 19.8289 50.8613 24.6905C51.4889 33.214 56.8861 40.0328 64.6682 41.927C66.8647 42.4321 69.2496 42.5583 71.5089 42.4321C77.3454 42.2426 82.0523 39.9697 85.0647 34.7293C85.1902 34.4768 85.4413 34.2874 85.8806 33.7191C85.8806 36.1183 85.9433 38.1387 85.8806 40.096C85.8178 41.8007 86.6337 41.8638 87.8889 41.3587V22.2281H70.7558C70.8185 22.9226 70.8813 23.4909 70.944 24.2485ZM102.386 39.654V1.77166H100.127V41.6744C103.453 41.6744 106.654 41.6744 109.854 41.6744C115.189 41.7375 120.523 41.7375 125.858 41.8007V39.5909H102.386V39.654ZM34.544 1.77166C28.1427 1.58225 21.804 1.70853 15.4027 1.70853C15.2144 1.70853 15.0889 1.8348 14.9006 1.89794V41.5481H17.2854V23.8066C18.164 23.8066 18.7916 23.8066 19.4192 23.8066C23.5613 23.8066 27.7033 23.8697 31.7827 23.8066C34.8578 23.7434 37.8075 23.2383 40.3806 21.4074C43.8951 18.8819 45.2758 13.894 43.8323 8.84304C42.6399 4.73911 39.2509 1.96108 34.544 1.77166ZM34.544 21.4074C29.2096 21.9124 23.7496 21.6599 18.3523 21.7862C17.2854 21.7862 17.2227 21.1548 17.2227 20.334C17.2227 17.8085 17.2227 15.2199 17.2227 12.6944C17.2227 10.1689 17.2227 7.58029 17.2227 5.0548C17.2227 4.10774 17.4109 3.53951 18.5406 3.60264C23.624 3.66578 28.7702 3.60264 33.8537 3.85519C38.5606 4.10774 41.6985 7.51715 41.8868 12.1262C42.0123 17.1772 39.3137 20.9654 34.544 21.4074ZM0.277832 41.6113H2.47438V1.77166H0.277832V41.6113Z" fill="#13131A"/>
</svg>
