<svg width="169" height="37" viewBox="0 0 169 37" fill="none" xmlns="http://www.w3.org/2000/svg">
<g opacity="0.3">
<path d="M168.525 19.9021C168.373 19.8514 168.17 19.9529 168.17 19.7498C168.017 19.0896 167.51 19.1404 167.103 19.1404C162.888 19.1404 158.623 19.1404 154.408 19.1404C154.205 19.1404 154.052 19.1404 153.849 19.1404C153.748 19.1404 153.646 19.1404 153.595 18.9881C153.544 18.8357 153.646 18.7342 153.798 18.7342C154.306 18.6834 154.306 18.3279 154.306 17.9216C154.306 13.6051 154.306 9.33942 154.306 5.02292C154.306 4.61666 154.255 4.2104 153.748 4.15962C153.646 4.15962 153.544 4.10884 153.544 3.95649C153.544 3.75336 153.697 3.75336 153.798 3.75336C153.951 3.75336 154.154 3.75336 154.306 3.75336C158.369 3.75336 162.431 3.75336 166.494 3.75336C167.053 3.75336 167.611 3.85493 167.764 3.04241C167.764 2.94084 167.865 2.89006 167.967 2.89006C168.119 2.89006 168.119 2.99163 168.119 3.09319C168.119 4.15962 168.119 5.22605 168.119 6.29248C168.119 6.39404 168.068 6.49561 167.967 6.49561C167.865 6.49561 167.764 6.44483 167.764 6.29248C167.662 5.73387 167.256 5.68309 166.849 5.68309C163.599 5.68309 160.299 5.68309 157.048 5.68309C156.693 5.68309 156.541 5.73387 156.541 6.19092C156.591 7.35891 156.541 8.57769 156.541 9.74568C156.541 10.1519 156.642 10.2027 156.998 10.2027C159.283 10.2027 161.568 10.2027 163.853 10.2027C164.26 10.2027 164.564 10.1519 164.666 9.64412C164.666 9.49177 164.717 9.3902 164.869 9.3902C165.021 9.3902 165.021 9.54255 165.021 9.6949C165.021 10.7105 165.021 11.6754 165.021 12.6911C165.021 12.8434 165.021 12.9958 164.869 12.9958C164.717 12.9958 164.666 12.8942 164.615 12.7418C164.513 12.2848 164.209 12.1832 163.803 12.1832C161.467 12.1832 159.181 12.1832 156.845 12.1832C156.591 12.1832 156.439 12.234 156.439 12.5895C156.439 13.9606 156.439 15.3825 156.439 16.7536C156.439 17.1091 156.591 17.2107 156.896 17.2107C160.299 17.2107 163.752 17.2107 167.154 17.2107C167.56 17.2107 167.967 17.1599 168.068 16.6013C168.119 16.3474 168.322 16.3474 168.474 16.2966C168.525 17.5154 168.525 18.7342 168.525 19.9021Z" fill="#13131A"/>
<path d="M3.99045 0.706421C3.99045 0.807986 3.93966 1.01112 3.93966 1.01112C3.17793 1.21424 3.33028 1.87442 3.33028 2.43302C3.33028 7.105 3.33028 11.7262 3.33028 16.3982C3.33028 17.0583 3.5334 17.2107 4.09201 17.2107C7.54521 17.1599 11.0492 17.2107 14.5024 17.2107C15.061 17.2107 15.6704 17.2615 15.8227 16.4489C15.8227 16.3474 15.9243 16.2966 16.0259 16.2966C16.1782 16.2966 16.1782 16.449 16.1782 16.5505C16.1782 17.5662 16.1782 18.5818 16.1782 19.5975C16.1782 19.8514 15.9751 19.9022 15.8735 19.7498C15.5688 19.1912 15.061 19.2928 14.604 19.2928C10.2367 19.2928 5.86939 19.2928 1.50211 19.2928C1.04507 19.2928 0.63881 19.3435 0.181769 19.242C0.181769 19.1404 0.181769 19.0896 0.181769 18.9881C0.892722 18.9373 0.892722 18.3787 0.892722 17.8201C0.892722 12.6403 0.892722 7.51126 0.892722 2.33146C0.892722 2.17911 0.892722 2.02676 0.892722 1.87442C0.791157 1.31581 0.588028 1.0619 0.130987 1.11268C0.130987 0.90955 0.0802044 0.706421 0.435681 0.706421C1.65446 0.757203 2.82245 0.706421 3.99045 0.706421Z" fill="#13131A"/>
<path d="M106.317 36.3556C106.266 35.8478 105.86 36.0509 105.606 36.0509C103.829 36.0509 102.051 36.0509 100.274 36.0509C100.071 36.0509 99.8675 36.0509 99.7152 36.0509C99.8675 33.4103 99.766 30.8204 99.766 28.1797C101.239 28.1797 102.813 28.1797 104.387 28.1797C104.641 28.1797 104.946 28.1797 105.2 28.1797C105.504 28.1797 105.961 28.0273 106.012 28.1289C106.215 28.4844 106.063 28.8906 106.063 29.3985C105.758 29.043 105.403 29.043 105.047 29.043C103.829 29.043 102.61 29.043 101.442 29.043C101.036 29.043 100.883 29.1953 100.883 29.6016C100.832 31.5821 100.832 31.5821 102.661 31.5821C103.27 31.5821 103.879 31.6837 104.489 31.379C104.489 31.836 104.489 32.2423 104.489 32.6485C103.829 32.3438 103.118 32.4962 102.457 32.4962C100.883 32.4962 100.883 32.4962 100.883 34.172C100.883 35.1876 100.883 35.1876 101.797 35.1876C102.965 35.1876 104.133 35.1876 105.301 35.1876C105.657 35.1876 106.012 35.1369 106.368 34.8829C106.368 35.4416 106.368 35.8986 106.368 36.4064C106.418 36.3556 106.368 36.3556 106.317 36.3556Z" fill="#13131A"/>
<path d="M168.525 32.6485C168.271 32.6485 167.967 32.5977 167.713 32.5977C160.552 32.5977 153.392 32.5977 146.181 32.5977C145.927 32.5977 145.572 32.8009 145.521 32.293C145.47 31.7344 145.724 31.6837 146.13 31.6837C151.158 31.6837 156.185 31.6837 161.213 31.6837C163.65 31.6837 166.088 31.7344 168.525 31.7344C168.525 31.9883 168.525 32.3438 168.525 32.6485Z" fill="#13131A"/>
<path d="M115.559 15.8903C116.372 13.5544 117.083 11.4215 117.844 9.23786C118.302 7.86673 118.759 6.49561 119.266 5.12449C119.419 4.66744 119.571 4.26119 118.911 4.10884C118.759 4.10884 118.759 4.00727 118.759 3.85493C118.759 3.70258 118.86 3.70258 118.962 3.70258C120.13 3.70258 121.247 3.70258 122.415 3.70258C122.516 3.70258 122.618 3.70258 122.669 3.85493C122.669 4.00727 122.567 4.05806 122.466 4.10884C122.11 4.15962 122.009 4.36275 122.11 4.76901C123.38 8.37456 124.649 11.9293 125.868 15.5349C125.868 15.5857 125.919 15.6364 125.97 15.6872C126.173 15.5857 126.173 15.3825 126.224 15.2302C127.29 12.0309 128.356 8.78082 129.423 5.58153C129.524 5.27683 129.626 4.97214 129.626 4.66744C129.677 4.2104 129.321 4.15962 129.017 4.10884C128.864 4.10884 128.763 4.05806 128.813 3.85493C128.813 3.70258 128.966 3.70258 129.067 3.70258C130.134 3.70258 131.251 3.70258 132.317 3.70258C132.419 3.70258 132.521 3.70258 132.571 3.85493C132.622 4.00727 132.521 4.10884 132.368 4.10884C131.86 4.15962 131.708 4.5151 131.556 4.97214C130.185 9.08551 128.813 13.2497 127.442 17.363C127.29 17.8709 126.833 18.531 127.798 18.7342C127.899 18.7342 127.899 18.8357 127.899 18.9373C127.849 19.0896 127.747 19.0896 127.645 19.0896C126.63 19.0896 125.614 19.0896 124.599 19.0896C124.446 19.0896 124.345 19.0389 124.345 18.8865C124.345 18.7342 124.395 18.6834 124.548 18.6834C125.259 18.6326 125.056 18.2263 124.903 17.8201C123.989 15.3825 123.126 12.945 122.212 10.5074C121.755 9.23786 121.247 7.9683 120.688 6.44483C120.384 7.35891 120.13 8.06986 119.927 8.78082C118.962 11.7262 117.946 14.6716 116.981 17.6169C116.829 18.1248 116.626 18.6326 117.438 18.7342C117.54 18.7342 117.591 18.7849 117.591 18.8865C117.591 19.0389 117.489 19.0896 117.387 19.0896C116.27 19.0896 115.153 19.0896 114.036 19.0896C113.934 19.0896 113.833 19.0896 113.782 18.9373C113.782 18.7849 113.833 18.6834 113.985 18.6834C114.645 18.6326 114.493 18.2263 114.34 17.8201C112.766 13.6559 111.192 9.49177 109.567 5.32762C109.364 4.81979 109.262 4.26119 108.653 4.10884C108.551 4.05806 108.501 4.00727 108.501 3.85493C108.501 3.70258 108.653 3.70258 108.754 3.70258C109.821 3.70258 110.938 3.70258 112.005 3.70258C112.106 3.70258 112.208 3.70258 112.258 3.85493C112.258 4.00727 112.157 4.05806 112.055 4.10884C111.294 4.36275 111.294 4.36275 111.598 5.12449C112.868 8.42534 114.087 11.6754 115.356 14.9763C115.305 15.281 115.407 15.4841 115.559 15.8903Z" fill="#13131A"/>
<path d="M78.6913 19.1912C77.0155 19.1912 75.5936 19.1912 74.1717 19.1912C73.9685 19.1912 73.7146 19.2928 73.6638 18.9881C73.6131 18.6834 73.9177 18.7849 74.0701 18.7342C74.3748 18.6326 74.4763 18.3279 74.4763 18.074C74.4763 13.7067 74.4763 9.28864 74.4763 4.92136C74.4763 4.56588 74.324 4.26119 73.9685 4.2104C73.8162 4.2104 73.6638 4.2104 73.6638 3.95649C73.7146 3.75336 73.867 3.80414 74.0193 3.80414C74.9334 3.80414 75.7967 3.80414 76.7108 3.80414C78.5897 3.80414 80.5195 3.75336 82.3984 3.85493C85.1406 4.00727 87.4259 5.12449 88.5431 7.9683C89.4572 10.3551 89.4571 12.7926 88.4923 15.1794C87.4766 17.7693 85.3946 18.8865 82.9062 19.1404C81.3828 19.2928 79.9101 19.1912 78.6913 19.1912ZM76.4569 11.4723C76.4569 13.1989 76.4569 14.9255 76.4569 16.6521C76.4569 16.9568 76.4569 17.2615 76.9139 17.2615C78.6405 17.2107 80.3163 17.363 82.0429 17.2107C85.1914 16.906 87.0196 14.8239 86.9688 11.4215C86.918 8.32377 85.4453 6.34326 82.6523 5.88622C80.7226 5.58153 78.7929 5.83544 76.8631 5.78466C76.4569 5.78466 76.5076 6.03857 76.5076 6.34326C76.4569 8.01908 76.4569 9.74568 76.4569 11.4723Z" fill="#13131A"/>
<path d="M148.111 15.7888C148.111 14.113 148.111 12.4371 148.111 10.7613C148.111 8.88238 148.111 7.00343 148.111 5.12449C148.111 4.61666 148.009 4.2104 147.451 4.10884C147.298 4.10884 147.197 4.00727 147.247 3.85493C147.247 3.70258 147.4 3.70258 147.501 3.70258C148.568 3.70258 149.583 3.70258 150.65 3.70258C150.751 3.70258 150.853 3.70258 150.904 3.85493C150.904 4.00727 150.853 4.10884 150.701 4.10884C150.142 4.15962 150.04 4.61666 150.04 5.12449C150.04 9.33942 150.04 13.5544 150.04 17.7693C150.04 18.2263 150.091 18.6834 150.65 18.7342C150.802 18.7342 150.904 18.7849 150.904 18.9881C150.904 19.242 150.701 19.1912 150.599 19.1912C149.888 19.1912 149.126 19.1912 148.415 19.1912C147.908 19.1912 147.349 19.1912 146.841 19.1912C146.74 19.1912 146.587 19.1912 146.536 19.0388C146.536 18.7849 146.74 18.7849 146.892 18.7849C147.095 18.7849 147.298 18.8357 147.4 18.5818C147.501 18.3279 147.298 18.1755 147.197 18.0232C144.099 14.3161 141.052 10.609 137.954 6.90187C137.904 6.85109 137.853 6.74952 137.802 6.69874C137.548 6.8003 137.65 7.00343 137.65 7.105C137.65 10.6598 137.65 14.2145 137.65 17.7693C137.65 18.2771 137.65 18.7849 138.31 18.7849C138.411 18.7849 138.513 18.8865 138.513 18.9881C138.513 19.1912 138.361 19.1912 138.259 19.1912C137.243 19.1912 136.228 19.1912 135.212 19.1912C135.11 19.1912 134.958 19.1912 134.907 18.9881C134.907 18.8357 135.009 18.7342 135.11 18.7342C135.669 18.6834 135.771 18.2263 135.771 17.7693C135.771 13.5544 135.771 9.28864 135.771 5.0737C135.771 4.61666 135.669 4.2104 135.11 4.10884C135.009 4.10884 134.907 4.05806 134.907 3.90571C134.907 3.70258 135.009 3.70258 135.161 3.70258C136.583 3.70258 138.005 3.70258 139.427 3.70258C139.529 3.70258 139.681 3.70258 139.681 3.90571C139.681 4.15962 139.478 4.05806 139.376 4.10884C138.767 4.26119 138.716 4.36275 139.122 4.87057C142.118 8.5269 145.115 12.1832 148.111 15.7888C148.06 15.8396 148.009 15.8396 148.111 15.7888Z" fill="#13131A"/>
<path d="M39.8936 6.64796C39.792 6.85109 39.8428 7.05421 39.8428 7.20656C39.8428 10.609 39.8428 14.0114 39.8428 17.4138C39.8428 17.9724 39.7412 18.6834 40.5537 18.7342C40.6045 18.7342 40.6553 18.8357 40.7061 18.9373C40.7061 19.0896 40.6553 19.1404 40.503 19.1404C39.4365 19.1404 38.3701 19.1404 37.3037 19.1404C37.2021 19.1404 37.1005 19.0896 37.1005 18.9373C37.1005 18.7849 37.2021 18.7342 37.3545 18.6834C37.9131 18.6326 37.9638 18.2263 37.9638 17.7185C37.9638 13.5036 37.9638 9.23786 37.9638 5.02292C37.9638 4.5151 37.8623 4.10884 37.3037 4.05806C37.1513 4.05806 37.0498 4.00727 37.0498 3.80414C37.1005 3.75336 37.2529 3.75336 37.3545 3.75336C38.7764 3.75336 40.1983 3.75336 41.6202 3.75336C41.7217 3.75336 41.8741 3.75336 41.8741 3.90571C41.8741 4.15962 41.7217 4.10884 41.5694 4.10884C40.9092 4.26119 40.8584 4.36275 41.3155 4.92136C44.2101 8.47612 47.1554 12.0309 50.1008 15.5856C50.1516 15.6364 50.2024 15.738 50.304 15.6872C50.4055 15.5349 50.3547 15.3825 50.3547 15.1794C50.3547 11.8785 50.3547 8.62847 50.3547 5.32762C50.3547 4.76901 50.4563 4.10884 49.6438 4.05806C49.5422 4.05806 49.4914 4.00727 49.4914 3.85493C49.4914 3.70258 49.5422 3.6518 49.6946 3.6518C50.761 3.6518 51.8782 3.6518 52.9446 3.6518C53.0462 3.6518 53.097 3.70258 53.1478 3.80414C53.1478 3.95649 53.097 4.00727 52.9954 4.05806C52.1829 4.10884 52.2845 4.76901 52.2337 5.32762C52.2337 7.9683 52.2337 10.5582 52.2337 13.1989C52.2337 14.6716 52.2337 16.0935 52.2337 17.5662C52.2337 18.074 52.2337 18.6326 52.9446 18.6834C53.0462 18.6834 53.1478 18.7849 53.1478 18.8865C53.097 19.0896 52.9446 19.0896 52.7923 19.0896C51.8782 19.0896 51.0149 19.0896 50.1008 19.0896C49.7453 19.0896 49.3391 19.0896 48.9836 19.0896C48.8313 19.0896 48.7297 19.0896 48.7297 18.8865C48.7297 18.6834 48.882 18.6834 48.9836 18.6834C49.7961 18.4802 49.7961 18.4295 49.2883 17.7693C46.2414 14.2653 43.296 10.6598 40.3506 7.105C40.1983 6.95265 40.0967 6.69874 39.8936 6.64796Z" fill="#13131A"/>
<path d="M99.6644 19.2928C98.598 19.2928 97.3284 19.1404 96.1604 18.6326C93.4182 17.4646 91.8439 15.281 91.59 12.1832C91.3361 8.93316 92.6057 6.34326 95.3479 4.76901C98.2425 3.14397 101.289 3.09319 104.235 4.61666C107.129 6.08935 108.501 8.98394 108.196 12.5387C107.942 15.4333 105.86 17.9216 103.016 18.8357C102.661 18.9373 102.254 19.0388 101.848 19.1404C101.239 19.2928 100.578 19.2928 99.6644 19.2928ZM100.02 17.4138C100.426 17.4138 100.985 17.363 101.493 17.2615C104.082 16.7029 105.911 14.57 106.063 11.8785C106.266 9.13629 104.793 6.8003 102.356 5.88622C101.137 5.42918 99.8167 5.3784 98.5472 5.58153C95.1956 6.14013 93.1135 9.49177 93.9768 12.945C94.5862 15.738 96.8714 17.4138 100.02 17.4138Z" fill="#13131A"/>
<path d="M63.355 19.2928C61.6284 19.3943 59.7495 18.8865 57.8705 18.1756C57.4135 17.9724 56.9057 17.6677 56.4994 18.3787C56.4486 18.4802 56.2963 18.4295 56.2455 18.3787C56.1439 18.3279 56.1439 18.1756 56.1947 18.074C56.5502 17.0583 56.9564 16.0427 57.3119 14.9763C57.3627 14.8747 57.4135 14.7731 57.5658 14.8239C57.6674 14.8747 57.769 14.9255 57.7182 15.0778C57.6166 15.7888 58.1752 15.9919 58.5815 16.195C59.9018 16.906 61.3237 17.2615 62.7964 17.363C64.066 17.4646 65.2847 17.4646 66.5035 17.1091C67.1129 16.9568 67.6715 16.7029 68.1285 16.2458C69.0934 15.3317 68.8395 13.8083 67.6715 13.2497C66.402 12.6403 65.0308 12.5895 63.7105 12.4371C62.3901 12.3356 61.0698 12.2848 59.8003 11.9293C59.7495 11.9293 59.6987 11.8785 59.5971 11.8785C58.226 11.4215 57.0072 10.7613 56.8041 9.03473C56.5502 7.105 57.1596 5.47996 58.7846 4.46431C60.3589 3.49945 62.0855 3.39789 63.8121 3.49945C65.3355 3.60102 66.8082 3.95649 68.2301 4.56588C68.5856 4.71823 68.9411 4.87057 69.195 4.41353C69.2965 4.26119 69.3981 4.26119 69.4997 4.36275C69.652 4.41353 69.652 4.56588 69.6012 4.71823C69.2458 5.68309 68.8903 6.64796 68.5348 7.61282C68.484 7.71439 68.4333 7.81595 68.3317 7.81595C68.1793 7.81595 68.1285 7.71439 68.1285 7.56204C68.1793 6.95265 67.7731 6.74952 67.4176 6.54639C65.234 5.47996 62.9995 5.17527 60.6635 5.78466C59.7495 6.03857 58.9877 6.54639 58.7846 7.6636C58.6323 8.57769 58.937 9.28864 59.7495 9.64412C60.9175 10.2027 62.187 10.2535 63.4058 10.3551C64.7769 10.4566 66.148 10.5074 67.4684 10.8629C67.6715 10.9137 67.8239 10.9645 68.027 11.0152C69.7028 11.5738 70.5661 12.5387 70.6169 14.0114C70.7185 16.1443 70.0075 17.6169 68.3825 18.3787C66.9098 19.1912 65.2847 19.2928 63.355 19.2928Z" fill="#13131A"/>
<path d="M26.487 14.6208C25.319 14.6208 24.2018 14.6716 23.0338 14.6208C22.5768 14.6208 22.3737 14.7731 22.2213 15.2302C21.8658 16.1443 21.4596 17.0583 21.0533 17.9216C20.7994 18.4295 20.901 18.7342 21.4596 18.7849C21.6119 18.7849 21.7643 18.7849 21.7643 18.9881C21.7643 19.242 21.5611 19.1912 21.4088 19.1912C20.4439 19.1912 19.4791 19.1912 18.5142 19.1912C18.3619 19.1912 18.2095 19.242 18.1587 19.0388C18.1079 18.7849 18.3111 18.7849 18.4634 18.7342C18.9205 18.6326 19.022 18.1756 19.1744 17.8201C20.4439 14.8239 21.6627 11.8278 22.8815 8.78082C23.3893 7.61282 23.8463 6.39404 24.3542 5.22605C24.5573 4.71823 24.6589 4.26119 23.9479 4.15962C23.8463 4.15962 23.7448 4.05806 23.7448 3.95649C23.7956 3.75336 23.9479 3.75336 24.0495 3.75336C25.6237 3.75336 27.198 3.75336 28.7215 3.75336C28.823 3.75336 28.9754 3.75336 29.0261 3.90571C29.0261 4.00727 28.9754 4.10884 28.8738 4.15962C28.1121 4.31197 28.366 4.81979 28.5691 5.27683C30.1434 8.88238 31.7684 12.4371 33.3426 16.0427C33.5966 16.6013 33.8505 17.2107 34.1044 17.7693C34.3075 18.2263 34.4599 18.7342 35.0692 18.7342C35.1708 18.7342 35.2724 18.8357 35.2216 18.9373C35.1708 19.1404 35.0185 19.1404 34.8661 19.1404C33.952 19.1404 33.0887 19.1404 32.1747 19.1404C31.9207 19.1404 31.616 19.1404 31.3621 19.1404C31.2098 19.1404 31.0574 19.1404 31.0574 18.8865C31.0574 18.7342 31.2098 18.7342 31.3114 18.6834C32.0731 18.531 32.1747 18.3279 31.8192 17.5662C31.4129 16.6521 31.0067 15.7888 30.6004 14.8747C30.4481 14.57 30.2957 14.5192 29.991 14.5192C28.8738 14.6208 27.7058 14.6208 26.487 14.6208ZM29.6863 12.6403C28.5691 10.2027 27.5027 7.76517 26.3347 5.27683C25.2683 7.81595 24.2526 10.2027 23.237 12.6403C25.4206 12.6403 27.5027 12.6403 29.6863 12.6403Z" fill="#13131A"/>
<path d="M119.063 35.9494C118.962 36.0002 118.962 36.0002 118.911 36.0002C118.149 36.0509 117.387 36.2033 117.083 35.0353C116.88 34.2736 116.321 33.6642 115.915 32.9532C115.813 32.8009 115.762 32.547 115.508 32.547C114.747 32.547 113.985 32.547 113.223 32.547C113.071 32.547 112.969 32.6485 112.969 32.8009C113.02 33.8673 112.817 34.9337 113.071 36.0002C112.614 36.0002 112.157 36.0002 111.7 36.0002C111.954 35.3908 111.954 28.8906 111.751 28.1797C113.426 28.1797 115.153 28.1289 116.829 28.1797C118.454 28.2305 119.266 29.5508 118.759 31.1251C118.505 31.836 117.997 32.1915 117.337 32.3438C117.134 32.3946 116.829 32.3946 117.032 32.8009C117.337 33.3595 117.692 33.8673 117.997 34.4259C118.302 34.9337 118.505 35.5431 119.063 35.9494ZM114.899 31.6329C115.204 31.6329 115.509 31.6329 115.813 31.6329C116.169 31.6329 116.473 31.6329 116.778 31.5821C117.387 31.4297 117.743 30.9219 117.692 30.211C117.641 29.5508 117.286 29.2461 116.676 29.1445C115.966 28.9922 115.204 29.0938 114.493 29.043C112.817 29.043 112.868 29.043 112.817 30.8204C112.817 31.4297 112.919 31.7344 113.579 31.6329C114.087 31.5821 114.493 31.6329 114.899 31.6329Z" fill="#13131A"/>
<path d="M62.2378 36.0002C62.3902 33.3595 62.3394 30.7696 62.2378 28.1289C63.9644 28.1797 65.8434 27.9765 67.6715 28.2305C68.7379 28.3828 69.2458 29.043 69.2458 30.1094C69.2966 31.3282 68.8395 31.9883 67.7731 32.293C67.6207 32.3438 67.4684 32.3946 67.2653 32.4962C67.9254 33.6642 68.5856 34.7814 69.3981 35.9494C68.9411 35.9494 68.484 35.9494 68.0778 35.9494C67.9762 35.9494 67.8746 36.0002 67.8239 35.797C67.57 34.5783 66.7067 33.7657 66.1988 32.6993C66.148 32.6485 66.0973 32.547 65.9957 32.547C65.1832 32.4454 64.3199 32.4454 63.5074 32.547C63.355 32.547 63.355 32.7501 63.355 32.8517C63.355 33.7657 63.355 34.7306 63.4058 35.6447C63.4058 35.9494 63.4566 36.0002 63.2027 36.0002C62.8472 36.0002 62.5425 36.0002 62.2378 36.0002ZM65.4879 31.6329C66.0465 31.5821 66.7066 31.7852 67.3668 31.5313C67.9254 31.3282 68.2301 30.8204 68.1793 30.211C68.1286 29.6016 67.8239 29.2969 67.2145 29.1953C66.0465 28.9922 64.8785 29.1445 63.7105 29.0938C63.4058 29.0938 63.3042 29.2461 63.3042 29.5508C63.3042 30.0586 63.3042 30.6172 63.3042 31.1251C63.3042 31.5313 63.4058 31.6837 63.8121 31.6837C64.3707 31.5821 64.8785 31.6329 65.4879 31.6329Z" fill="#13131A"/>
<path d="M87.4766 36.0002C87.1212 36.0002 86.7149 36.0002 86.4102 36.0002C86.5118 33.4103 86.461 30.8204 86.4102 28.1797C86.3594 28.1797 86.4102 28.1797 86.461 28.1797C87.3243 28.1797 88.086 28.0781 88.7462 29.1445C89.7111 30.7696 91.0822 32.0899 92.301 33.5626C92.4533 33.7149 92.5041 33.9181 92.8088 34.0196C92.8088 32.0899 92.8088 30.1602 92.8088 28.2305C93.1643 28.2305 93.5197 28.2305 93.926 28.2305C93.7229 28.8398 93.7229 35.4923 93.9768 36.0509C93.7229 36.0509 93.5197 36.0509 93.2658 36.0509C92.9611 36.0509 92.5549 36.2033 92.6057 35.5939C92.6057 35.5431 92.5041 35.4416 92.4533 35.3908C90.8791 33.461 89.254 31.5313 87.6798 29.6524C87.629 29.6016 87.5782 29.5508 87.4766 29.5C87.4766 31.6329 87.4766 33.8165 87.4766 36.0002Z" fill="#13131A"/>
<path d="M130.896 28.4844C130.642 29.043 130.439 29.5 130.235 29.9571C129.728 29.1953 128.915 29.043 128.153 28.9414C127.341 28.8398 126.579 28.9414 125.868 29.2969C125.36 29.5508 125.056 29.9571 125.208 30.5664C125.36 31.125 125.868 31.2266 126.325 31.2774C127.239 31.3282 128.153 31.379 129.067 31.4297C129.321 31.4297 129.575 31.4805 129.778 31.5821C130.54 31.836 131.099 32.2423 131.2 33.1563C131.353 34.1212 130.997 34.8829 130.235 35.34C128.56 36.3048 126.782 36.2033 125.056 35.4923C124.7 35.34 124.395 35.0861 123.888 35.1876C124.091 34.6798 124.294 34.2228 124.548 33.6642C124.7 34.3243 125.106 34.5783 125.513 34.7306C126.579 35.2384 127.747 35.2892 128.864 35.0353C129.118 34.9845 129.321 34.8829 129.524 34.7306C129.981 34.4259 130.235 33.9689 130.083 33.3595C129.981 32.8517 129.524 32.6485 129.118 32.5977C128.458 32.4454 127.747 32.4962 127.087 32.4962C126.579 32.4962 126.071 32.4962 125.563 32.3438C124.903 32.1407 124.294 31.7852 124.192 30.9727C124.04 30.0586 124.294 29.2969 125.056 28.7891C126.376 27.9765 127.747 27.875 129.22 28.2305C129.677 28.3828 130.185 28.7383 130.896 28.4844Z" fill="#13131A"/>
<path d="M38.4209 28.1797C39.9444 28.1797 41.6202 28.1797 43.2452 28.1797C44.7687 28.2305 45.4796 28.9922 45.3781 30.5664C45.3273 31.6329 44.6671 32.3438 43.6515 32.4454C42.4835 32.5977 41.3663 32.4962 40.1983 32.4962C39.6904 32.4962 39.4365 32.6485 39.4873 33.2579C39.5381 33.8673 39.4873 34.4767 39.4873 35.0861C39.4873 35.3908 39.4873 35.6447 39.7412 35.9494C39.2334 35.9494 38.7256 35.9494 38.4209 35.9494C38.4717 33.3595 38.4209 30.7696 38.4209 28.1797ZM41.5694 31.6329C41.9249 31.6329 42.2296 31.6329 42.585 31.6329C42.9405 31.6329 43.296 31.6837 43.6515 31.5313C44.2608 31.3282 44.5148 30.8711 44.464 30.1602C44.4132 29.5508 44.1085 29.2461 43.4991 29.1445C42.6866 28.9922 41.9249 29.0938 41.1123 29.043C39.4873 29.043 39.4873 29.043 39.4873 30.7188C39.4873 31.5821 39.4873 31.5821 40.2998 31.5821C40.7061 31.6329 41.1631 31.6329 41.5694 31.6329Z" fill="#13131A"/>
<path d="M12.268 32.5977C8.66242 32.5977 5.10766 32.5977 1.50211 32.5977C1.19742 32.5977 0.892721 32.6993 0.892721 32.1407C0.892721 31.5821 1.19742 31.6837 1.50211 31.6837C8.7132 31.6837 15.9751 31.6837 23.1862 31.6837C23.4909 31.6837 23.7956 31.6329 23.7956 32.1407C23.7956 32.6485 23.5417 32.6485 23.1862 32.6485C19.5806 32.5977 15.9243 32.5977 12.268 32.5977Z" fill="#13131A"/>
<path d="M57.058 36.0002C56.5502 36.0002 56.0424 36.0002 55.5345 36.0002C55.6869 35.2384 55.1791 34.6798 54.9251 34.0196C54.8236 33.8165 54.6204 33.8673 54.4681 33.8673C53.3509 33.8673 52.2845 33.8673 51.1673 33.8673C50.8626 33.8673 50.6594 33.9689 50.5579 34.3243C50.4055 34.8322 50.05 35.2384 50.1008 35.797C50.1008 36.0002 49.9993 36.0002 49.8469 36.0002C49.4914 36.0002 49.136 36.0002 48.8313 36.0002C49.8469 33.5626 50.8626 31.1758 51.929 28.7891C52.0306 28.5859 51.8274 28.2305 52.0305 28.1797C52.4876 28.1289 52.9954 28.1797 53.4525 28.1797C53.6048 28.1797 53.5032 28.332 53.554 28.3828C54.5189 30.9727 55.6869 33.461 56.9564 35.8986C57.058 35.8986 57.058 35.8986 57.058 36.0002ZM52.8431 29.4492C52.7923 29.4492 52.7415 29.4492 52.6907 29.4492C52.2337 30.5157 51.8274 31.5821 51.3704 32.6485C51.2688 32.9532 51.3704 33.004 51.6243 33.004C52.4368 33.004 53.2493 33.004 54.0618 33.004C54.265 33.004 54.4681 32.9024 54.3158 32.6485C53.8079 31.5821 53.3509 30.5157 52.8431 29.4492Z" fill="#13131A"/>
<path d="M81.2812 27.9258C81.2812 28.332 81.2812 28.7891 81.2812 29.1953C80.3671 28.8906 79.4022 29.043 78.4882 29.043C78.2343 29.043 78.1835 29.2461 78.1835 29.4492C78.1835 31.4297 78.1835 33.4103 78.1835 35.3908C78.1835 35.5939 78.285 35.7462 78.3866 35.9494C77.9296 35.9494 77.4725 35.9494 76.9647 35.9494C77.1678 35.5431 77.117 35.1369 77.117 34.7306C77.117 33.004 77.117 31.2774 77.117 29.5508C77.117 29.0938 76.9647 28.9414 76.5584 28.9922C75.8475 29.043 75.0857 28.9414 74.3748 29.043C74.0193 29.0938 74.0193 28.9922 74.0701 28.7383C74.1209 28.4336 73.7654 27.9765 74.5779 28.0273C76.6092 28.1797 78.6405 28.0781 80.7226 28.0781C80.9257 28.1797 81.0273 27.9765 81.2812 27.9258Z" fill="#13131A"/>
</g>
</svg>
