<svg width="149" height="17" viewBox="0 0 149 17" fill="none" xmlns="http://www.w3.org/2000/svg">
<g opacity="0.3">
<path d="M0.460083 1.12626V15.9866H10.2972V13.475H3.39028V1.12626H0.460083Z" fill="black"/>
<path d="M30.2587 15.9866L24.9425 1.12626H21.0913L15.7751 15.9866H18.7262L19.7518 13.0145H26.2192L27.2238 15.9866H30.2587ZM21.1541 8.91222C21.803 7.02852 22.4727 5.12389 22.975 3.3867C23.4774 5.12389 24.1471 6.98666 24.7959 8.87036L25.382 10.5866H20.589L21.1541 8.91222Z" fill="black"/>
<path d="M41.2267 0.791378C37.8151 0.791378 35.5546 2.73787 35.5546 5.22854C35.5546 7.5727 36.7267 8.68199 40.6825 9.64477C42.9848 10.1889 44.4499 10.3564 44.4499 11.7378C44.4499 13.0564 43.2359 13.7889 41.5406 13.7889C39.7616 13.7889 38.6313 13.2657 36.643 11.5285L34.8849 13.6005C37.1034 15.5889 38.8406 16.3424 41.4778 16.3424C45.1196 16.3424 47.3591 14.3331 47.3591 11.5075C47.3591 8.93315 45.6638 8.03316 42.0639 7.17503C39.5313 6.58899 38.443 6.3169 38.443 5.14482C38.443 4.11925 39.4895 3.32391 41.1639 3.32391C42.7755 3.32391 43.7383 3.70065 45.4545 5.14482L47.1708 3.09368C45.2661 1.46114 43.6964 0.791378 41.2267 0.791378Z" fill="black"/>
<path d="M52.6481 1.12626V3.63786H57.1271V15.9866H60.0573V3.63786H64.5363V1.12626H52.6481Z" fill="black"/>
<path d="M79.3972 1.12626V15.9866H89.2343V13.475H82.3274V1.12626H79.3972Z" fill="black"/>
<path d="M101.356 0.770447C96.7929 0.770447 94.0092 4.14018 94.0092 8.55641C94.0092 12.9726 96.7929 16.3424 101.356 16.3424C105.918 16.3424 108.681 12.9726 108.681 8.55641C108.681 4.14018 105.918 0.770447 101.356 0.770447ZM101.356 3.36577C103.972 3.36577 105.667 5.41691 105.667 8.55641C105.667 11.7168 103.972 13.747 101.356 13.747C98.7393 13.747 97.0231 11.7168 97.0231 8.55641C97.0231 5.41691 98.7393 3.36577 101.356 3.36577Z" fill="black"/>
<path d="M125.498 10.2099V10.4401C125.498 12.4912 124.096 13.768 121.752 13.768C119.073 13.768 117.335 11.9261 117.335 8.53548C117.335 5.18668 119.177 3.36577 121.814 3.36577C123.447 3.36577 124.598 3.90995 126.314 5.4797L128.156 3.57507C126.168 1.56579 124.389 0.791378 121.835 0.791378C117.126 0.791378 114.342 4.09832 114.342 8.53548C114.342 13.0354 116.959 16.3214 121.521 16.3214C123.321 16.3214 124.828 15.84 125.77 14.5842L125.917 15.9866H128.156V7.74014H121.249V10.2099H125.498Z" fill="black"/>
<path d="M141.674 0.770447C137.112 0.770447 134.328 4.14018 134.328 8.55641C134.328 12.9726 137.112 16.3424 141.674 16.3424C146.237 16.3424 149 12.9726 149 8.55641C149 4.14018 146.237 0.770447 141.674 0.770447ZM141.674 3.36577C144.291 3.36577 145.986 5.41691 145.986 8.55641C145.986 11.7168 144.291 13.747 141.674 13.747C139.058 13.747 137.342 11.7168 137.342 8.55641C137.342 5.41691 139.058 3.36577 141.674 3.36577Z" fill="black"/>
</g>
</svg>
