<svg width="63" height="69" viewBox="0 0 63 69" fill="none" xmlns="http://www.w3.org/2000/svg">
<g opacity="0.3" clip-path="url(#clip0_4327_10683)">
<path d="M34.8292 35.4433V45.4184C34.7396 47.1294 35.0099 48.8401 35.6222 50.4378C36.2346 52.0354 37.1751 53.4836 38.3816 54.6868V52.0569C37.4332 50.2133 36.9639 48.1561 37.0179 46.0788V44.144H40.0661V54.2697C40.0661 55.2429 40.0661 55.7642 40.0661 55.9728C39.9982 58.4991 39.1745 60.9453 37.7036 62.9888C36.2327 65.0322 34.1837 66.577 31.8269 67.4192C29.4745 66.577 27.4289 65.0354 25.9585 62.9968C24.4882 60.9583 23.6617 58.5179 23.5877 55.996C27.0255 53.5978 28.7558 50.1221 28.7558 45.4184V44.144H33.2249V41.908H21.2385V53.9221C22.1174 53.3058 22.8655 52.518 23.4387 51.6051V44.144H26.4869V46.0788C26.5696 47.5833 26.3412 49.0887 25.8164 50.4989C25.2916 51.9092 24.4818 53.1935 23.4387 54.2697C22.8078 54.8868 22.0988 55.4166 21.3302 55.8453C20.8667 56.1196 20.3841 56.3596 19.8864 56.5636C15.4402 54.6984 13.2744 51.1416 13.2744 46.1367V37.6909H26.4869V40.2165H28.6641V35.4433H11.0971V45.4184C11.0971 51.524 13.939 55.5789 19.8864 57.8496C20.4479 57.6295 21.0323 57.3978 21.5021 57.1545C22.4303 62.6228 25.7764 66.4229 31.7352 68.74C37.694 66.4229 41.0516 62.6692 41.9683 57.1545C42.484 57.4094 43.0226 57.6411 43.5956 57.8612C49.5315 55.5441 52.3734 51.5355 52.3734 45.43V35.4433H34.8292ZM50.1961 46.0788C50.1961 51.1416 48.0418 54.6984 43.5956 56.5057C43.0932 56.3037 42.6067 56.0636 42.1402 55.7874C42.1402 55.1386 42.2319 54.4667 42.2319 53.7715V41.908H36.9836V37.6909H50.1961V46.0788ZM61.1855 20.4054H61.8731L62.4231 17.5785C61.2033 17.0532 59.8869 16.7965 58.5614 16.8255C54.4819 16.8255 51.6858 19.467 51.6858 23.0005C51.6858 26.5341 54.1266 28.7933 58.0457 28.7933C59.7244 28.8378 61.3591 28.247 62.6294 27.1365L62.1252 26.5109C61.1049 27.2669 59.8721 27.6729 58.6072 27.6695C55.8226 27.6695 53.7485 25.7347 53.7485 22.456C53.7485 19.5017 55.4101 17.8218 58.1259 17.8218C60.2573 17.8218 61.1053 18.4706 61.1053 20.081L61.1855 20.4054ZM45.2915 17.8682C46.7125 17.9261 46.8385 18.0304 46.8385 18.8298V26.7542C46.8385 27.5536 46.7125 27.6579 45.2915 27.7158V28.5268H50.3794V27.7158C48.947 27.7158 48.8324 27.5536 48.8324 26.7542V18.8529C48.8324 18.0535 48.947 17.9493 50.3794 17.8913V17.0804H45.2915V17.8682ZM42.335 19.6871C42.335 18.1578 42.6101 17.8913 43.882 17.8682V17.0572H39.7796V17.8682C41.0516 17.8682 41.3152 18.1578 41.3152 19.6871V25.4798L33.9812 17.0572H30.7154L30.8414 17.7987C32.1707 18.0188 32.3311 18.1578 32.3311 19.3511V25.8969C32.3311 27.4262 32.0561 27.6926 30.7841 27.7158V28.5268H34.8865V27.7158C33.6145 27.7158 33.3395 27.4262 33.3395 25.8969V19.3743L41.5214 28.6427H42.335V19.6871ZM24.0002 17.8682C25.4212 17.9261 25.5472 18.0304 25.5472 18.8298V26.7542C25.5472 27.5536 25.4212 27.6579 24.0002 27.7158V28.5268H29.0996V27.7158C27.6787 27.7158 27.5526 27.5536 27.5526 26.7542V18.8529C27.5526 18.0535 27.6787 17.9493 29.0996 17.8913V17.0804H24.0117L24.0002 17.8682ZM22.9574 25.2249H22.3043L22.0636 25.7463C21.3646 27.2408 20.7916 27.6 19.5082 27.6H17.3997C16.6892 27.6 16.5975 27.2872 16.5975 26.2676V18.8529C16.5975 18.042 16.7351 17.8798 18.3623 17.8566V17.0456H13.1254V17.8566C14.489 17.9145 14.5922 18.0188 14.5922 18.8182V26.0823C14.5922 27.4146 14.512 27.5189 13.2514 27.7622V28.5152H22.3272L22.9574 25.2249ZM10.272 20.4054H10.9711L11.5096 17.5785C10.2898 17.0532 8.9734 16.7965 7.64787 16.8255C3.56837 16.8255 0.772308 19.467 0.772308 23.0005C0.772308 26.5341 3.21313 28.7933 7.1322 28.7933C8.81092 28.8378 10.4456 28.247 11.7159 27.1365L11.2232 26.5109C10.1979 27.2656 8.96192 27.6713 7.6937 27.6695C4.9091 27.6695 2.83498 25.7347 2.83498 22.456C2.83498 19.5017 4.49657 17.8218 7.21241 17.8218C9.34383 17.8218 10.1918 18.4706 10.1918 20.081L10.272 20.4054ZM47.0104 6.10892C47.0104 3.03877 48.523 1.41681 51.067 1.41681C53.611 1.41681 55.3642 3.37475 55.3642 6.74612C55.3642 9.80469 53.8516 11.3803 51.3076 11.3803C48.7637 11.3803 47.0104 9.44554 47.0104 6.10892ZM44.8905 6.64185C44.8905 10.1175 47.1823 12.4346 50.9753 12.4346C54.7683 12.4346 57.4727 9.86261 57.4727 6.25953C57.4727 2.65645 55.1809 0.466797 51.3993 0.466797C47.6178 0.466797 44.8905 3.03877 44.8905 6.65344V6.64185ZM41.3839 11.3687C39.963 11.2992 39.8369 11.1949 39.8369 10.3955V7.07051L42.9997 2.52901C43.5841 1.70644 43.7675 1.50949 44.604 1.47473V0.66375H40.7193V1.47473C41.7162 1.47473 41.9569 1.67169 41.9569 2.04242C41.9286 2.34581 41.8086 2.63302 41.6131 2.86499L39.4129 6.03941L37.1211 2.74913C36.9404 2.5509 36.8279 2.29896 36.8002 2.03083C36.8002 1.6601 37.0523 1.47473 38.0837 1.46315V0.66375H33.076V1.47473C33.8323 1.47473 34.0271 1.70644 34.5886 2.51742L37.843 7.15161V10.326C37.843 11.1254 37.7284 11.2297 36.296 11.2992V12.1102H41.3839V11.3687ZM26.0285 7.39491L27.862 3.21255L29.6726 7.39491H26.0285ZM26.166 11.3803C25.0201 11.3803 24.7451 11.1486 24.7451 10.5925C24.7706 10.3513 24.8365 10.1163 24.9399 9.89737L25.6618 8.28699H30.0966L30.8529 10.0596C30.9434 10.2524 30.9978 10.4606 31.0133 10.6736C31.0133 11.1486 30.7154 11.334 29.7299 11.3456V12.1449H34.4052V11.334C33.5802 11.334 33.4197 11.1023 33.0301 10.1754L28.7558 0.547895H27.9537L23.7023 10.1986C23.3012 11.1023 23.1522 11.2876 22.3157 11.3571V12.1681H26.1317L26.166 11.3803ZM10.1231 11.3803C8.85109 11.3803 8.57607 11.0791 8.57607 9.5498V2.94609L13.0566 11.7742H13.4692L17.9268 2.89974V10.3608C17.9268 11.1602 17.8237 11.2645 16.46 11.334V12.1449H21.3761V11.334C20.0239 11.2645 19.9093 11.1602 19.9093 10.3608V2.43633C19.9093 1.64851 20.0239 1.53266 21.3761 1.47473V0.66375H17.9383L13.7671 8.98212L9.67615 0.66375H6.03211V1.47473C7.33846 1.61376 7.57911 1.7412 7.57911 3.21255V9.53822C7.57911 11.0675 7.30409 11.334 6.03211 11.3687V12.1797H10.1345L10.1231 11.3803Z" fill="#13131A"/>
</g>
<defs>
<clipPath id="clip0_4327_10683">
<rect width="61.88" height="68.25" fill="white" transform="translate(0.795959 0.431396)"/>
</clipPath>
</defs>
</svg>
