<svg width="77" height="92" viewBox="0 0 77 92" fill="none" xmlns="http://www.w3.org/2000/svg">
<path opacity="0.3" d="M25.0357 29.0281V45.9925H34.1359C36.7928 45.9925 37.1997 46.8498 37.2474 47.6869L37.2769 48.205H37.4211H38.5345H38.6786L38.7079 47.6869C38.7318 47.2683 38.8053 45.9925 42.0685 45.9925H51.2243V29.0281L42.7627 29.032C42.1594 29.032 40.12 29.0738 39.2072 29.6104C38.6769 29.9202 38.2765 30.3628 37.9797 30.8949C37.681 30.3561 37.2711 29.9172 36.748 29.6104C35.8912 29.1072 34.3074 29.032 33.4392 29.032L25.0357 29.0281ZM39.7639 30.5593C40.1923 30.3074 41.4264 30.1316 42.7629 30.1316L50.1254 30.1285V44.8931H42.0701C40.2907 44.8931 39.1955 45.2643 38.5354 45.7919L38.5323 33.2377C38.5323 33.1936 38.5267 33.1546 38.5256 33.1117C38.5458 32.238 38.784 31.1322 39.7639 30.5593ZM36.1943 30.5593C37.1882 31.1439 37.4182 32.2784 37.4308 33.1587C37.4308 33.1867 37.4234 33.2093 37.4234 33.2379L37.4211 45.7159C36.3979 44.8942 34.8068 44.8931 34.1359 44.8931H26.1348V30.1285L33.442 30.1316C34.6898 30.1316 35.7445 30.2963 36.1943 30.5593ZM52.3175 30.7542H53.4142V48.6177H40.8463C40.3353 49.5046 39.4528 49.9666 38.1141 49.9666C36.7751 49.9666 35.8925 49.5053 35.3848 48.6177H22.8375V47.423L21.8112 47.8659C21.7301 48.3351 21.3225 48.6927 20.8328 48.6927C20.2811 48.6927 19.8332 48.2436 19.8332 47.6901C19.8332 47.141 20.2811 46.6929 20.8328 46.6929C21.0364 46.6929 21.2237 46.7529 21.3798 46.8576L22.8377 46.2305V44.9218L21.8392 45.2276C21.7165 45.6415 21.3401 45.9452 20.8864 45.9452C20.3355 45.9452 19.8872 45.4988 19.8872 44.9476C19.8872 44.395 20.3353 43.9491 20.8864 43.9491C21.1259 43.9491 21.3451 44.0375 21.5179 44.1797L22.8357 43.7765V42.4266L21.8173 42.6004C21.6627 42.9547 21.3111 43.2001 20.9013 43.2001C20.3522 43.2001 19.9005 42.7552 19.9005 42.2017C19.9005 41.6505 20.3522 41.2032 20.9013 41.2032C21.1882 41.2032 21.4452 41.3272 21.628 41.5215L22.8349 41.3132V39.9359L21.7689 39.9745C21.5951 40.2619 21.2796 40.4549 20.92 40.4549C20.3706 40.4549 19.9195 40.0081 19.9195 39.4575C19.9195 38.9064 20.3706 38.4579 20.92 38.4579C21.2549 38.4579 21.5513 38.6246 21.7331 38.8786L22.8357 38.8388V37.3455L21.7091 37.2967C21.5285 37.5458 21.2348 37.7104 20.9022 37.7104C20.3531 37.7104 19.9017 37.2619 19.9017 36.7119C19.9017 36.1614 20.3531 35.7134 20.9022 35.7134C21.2653 35.7134 21.5823 35.91 21.757 36.2L22.8357 36.2488V34.874L21.6063 34.6535C21.4242 34.844 21.1665 34.9654 20.8844 34.9654C20.3334 34.9654 19.885 34.5178 19.885 33.9678C19.885 33.4158 20.3334 32.9684 20.8844 32.9684C21.2965 32.9684 21.6499 33.2179 21.8006 33.5748L22.8357 33.7603V32.4117L21.462 31.9887C21.289 32.132 21.0707 32.2192 20.8305 32.2192C20.2789 32.2192 19.8304 31.7722 19.8304 31.2216C19.8304 30.6707 20.2789 30.2222 20.8305 30.2222C21.284 30.2222 21.6627 30.527 21.7836 30.9414L22.8366 31.2643V30.7539H23.9333V47.5223H36.0566L36.1975 47.8657C36.4098 48.3901 36.79 48.8735 38.113 48.8735C39.4402 48.8735 39.8179 48.3899 40.0308 47.8657L40.169 47.5223H52.3175V30.7542ZM29.8594 26.922C27.323 26.922 25.267 26.5275 25.267 26.041C25.267 25.5545 27.323 25.16 29.8594 25.16C32.3958 25.16 34.4518 25.5545 34.4518 26.041C34.4518 26.5275 32.3958 26.922 29.8594 26.922ZM24.9314 24.6991L23.3096 19.7473L23.5331 19.659L26.2948 21.5228L26.3179 21.7112L25.6877 21.9927C25.5625 22.0576 25.5594 22.1562 25.6249 22.2165L27.1803 23.623L27.3362 23.6082L28.5185 21.8692C28.5986 21.756 28.5678 21.6452 28.4281 21.6214L27.6351 21.4904V21.2917L29.6879 18.3908H30.025L32.0793 21.2917V21.4904L31.2863 21.6214C31.1417 21.6442 31.1139 21.756 31.1959 21.8692L32.3754 23.6082L32.5338 23.623L34.2012 22.2165C34.2636 22.1571 34.2636 22.0576 34.1366 21.9927L33.5074 21.7112L33.5313 21.5228L36.1804 19.659L36.4048 19.7473L34.786 24.6991C33.9612 24.3299 32.0719 24.0689 29.8574 24.0596C27.6442 24.0696 25.7535 24.3308 24.9314 24.6991ZM42.6898 59.2589C42.6898 59.7456 40.6327 60.1401 38.0951 60.1401C35.5576 60.1401 33.5005 59.7456 33.5005 59.2589C33.5005 58.7722 35.5576 58.3777 38.0951 58.3777C40.6327 58.3777 42.6898 58.7722 42.6898 59.2589ZM44.4168 52.8763L44.6422 52.9647L43.0196 57.9178C42.1988 57.548 40.3076 57.2879 38.0944 57.2779C35.8823 57.2877 33.9915 57.548 33.1677 57.9178L31.5447 52.9647L31.7682 52.8763L34.5322 54.7393L34.5539 54.9282L33.9247 55.2117C33.7999 55.2724 33.7968 55.3741 33.8623 55.4344L35.4175 56.8387L35.5752 56.8255L36.7545 55.0855C36.8368 54.9739 36.8091 54.8621 36.6643 54.838L35.873 54.7088V54.5065L37.9245 51.6077H38.2629L40.3141 54.5065V54.7088L39.5224 54.838C39.3823 54.8621 39.3518 54.9739 39.4333 55.0855L40.6119 56.8255L40.7704 56.8387L42.4371 55.4344C42.4995 55.3741 42.4995 55.2724 42.3755 55.2117L41.7473 54.9282L41.7678 54.7393L44.4168 52.8763ZM46.3121 25.1582C48.8476 25.1582 50.903 25.5534 50.903 26.041C50.903 26.5286 48.8476 26.9238 46.3121 26.9238C43.7766 26.9238 41.7212 26.5286 41.7212 26.041C41.7212 25.5534 43.7766 25.1582 46.3121 25.1582ZM41.3837 24.6991L39.7615 19.7473L39.9859 19.659L42.7471 21.5228L42.7713 21.7112L42.1412 21.9763C42.0154 22.0378 42.0132 22.1374 42.0783 22.1978L43.6346 23.623L43.7909 23.6082L44.9711 21.8692C45.0513 21.756 45.0222 21.6452 44.8837 21.6214L44.0877 21.4904V21.2917L46.1435 18.3908H46.4784L48.5326 21.2917V21.4904L47.7401 21.6214C47.5981 21.6442 47.5679 21.756 47.6508 21.8692L48.8292 23.6082L48.9859 23.623L50.6533 22.2165C50.7157 22.1571 50.7157 22.0576 50.5884 21.9927L49.9584 21.7112L49.9851 21.5228L52.634 19.659L52.8575 19.7473L51.2373 24.6991C50.4133 24.3299 48.5248 24.0689 46.3101 24.0596C44.0976 24.0696 42.2044 24.3308 41.3837 24.6991ZM29.1067 33.1241C29.1067 32.8244 28.969 32.5643 28.8051 32.4085C28.5717 32.181 28.2161 32.0967 27.7847 32.0967H26.7628V32.2348C26.9896 32.2558 27.0177 32.2797 27.0177 32.6549V33.8108C27.0177 34.1881 26.9896 34.213 26.7348 34.2338V34.3695H27.6378C28.4459 34.3695 29.1067 33.9958 29.1067 33.1241ZM27.6132 32.4722C27.6132 32.3848 27.6182 32.3037 27.634 32.2964C27.6611 32.2838 27.7036 32.2725 27.7858 32.2725C28.0819 32.2725 28.4657 32.4839 28.4657 33.2333C28.465 33.8533 28.1582 34.1841 27.8574 34.1841C27.6911 34.1841 27.6132 34.1237 27.6132 33.8149V32.4722ZM30.5741 34.4222C31.2472 34.4222 31.7569 33.9541 31.7569 33.2054C31.7569 32.5127 31.2628 32.0423 30.6266 32.0423C29.7881 32.0423 29.4115 32.6974 29.4115 33.2639C29.4115 33.9073 29.8691 34.4222 30.5741 34.4222ZM30.5533 32.2257C30.8549 32.2257 31.1067 32.6157 31.1067 33.3166C31.1067 33.95 30.942 34.2407 30.6417 34.2407C30.2971 34.2407 30.0592 33.7783 30.0592 33.1449C30.0592 32.5344 30.2841 32.2257 30.5533 32.2257ZM32.8191 34.3704H31.9546V34.2327C32.1245 34.2206 32.1918 34.185 32.2137 34.0551C32.2293 33.9468 32.2492 33.7621 32.2674 33.4436L32.306 32.7371C32.3288 32.2964 32.3028 32.2578 32.0242 32.2348V32.0967L32.848 32.0965L33.4621 33.4809L33.9952 32.0965H34.8441V32.2346C34.5777 32.2586 34.5643 32.2723 34.577 32.6397L34.6098 33.8108C34.6224 34.1985 34.6276 34.2089 34.8797 34.2327V34.3704H33.7843V34.2327C34.0477 34.2089 34.0568 34.1987 34.0529 33.8108L34.0444 32.5791H34.0292L33.354 34.3316H33.1645L32.5254 32.7029H32.5183L32.4937 33.4791C32.4838 33.7781 32.4885 33.9468 32.5028 34.0551C32.5154 34.1839 32.592 34.2164 32.8191 34.2327V34.3704ZM36.2491 34.3693H35.1167V34.2336C35.3581 34.2128 35.3879 34.1889 35.3879 33.8106V32.6547C35.3879 32.2795 35.3568 32.2556 35.1167 32.2346V32.0965H36.2491V32.2346C36.01 32.2545 35.9799 32.2795 35.9799 32.6547V33.8097C35.9799 34.1881 36.0111 34.2119 36.2491 34.2327V34.3693ZM29.1171 38.429V38.565H28.2486V38.429C28.4037 38.4217 28.4921 38.3737 28.5099 38.2511C28.5224 38.142 28.5366 37.9506 28.5366 37.5812V36.9384C28.5366 36.6813 28.5298 36.6345 28.4609 36.538C28.4088 36.4637 28.3226 36.44 28.1953 36.4289V36.2922H28.9694L30.1314 37.7442H30.1384V37.2764C30.1384 36.9093 30.1271 36.7147 30.1145 36.6085C30.0937 36.4868 30.0005 36.4411 29.7703 36.43V36.2932H30.6584V36.43C30.4857 36.437 30.3942 36.4857 30.3775 36.6085C30.3653 36.7147 30.3506 36.9093 30.3506 37.2764V38.5908H30.049L28.7572 36.9393H28.7468V37.5823C28.7468 37.9515 28.7614 38.1431 28.7737 38.2523C28.7934 38.3735 28.8879 38.4197 29.1171 38.429ZM31.6383 36.611C31.702 36.8064 31.9784 37.4951 32.1085 37.8374C32.2158 37.5417 32.4391 36.8729 32.4966 36.7099C32.5703 36.4955 32.5473 36.458 32.3904 36.4402L32.283 36.429V36.2924H33.1309V36.429C32.9303 36.4539 32.8822 36.4717 32.7448 36.7895C32.7253 36.8367 32.298 37.8769 32.0366 38.5899H31.7662C31.5249 37.9597 31.1959 37.0967 31.0701 36.7667C30.955 36.468 30.8852 36.4496 30.7167 36.4289V36.2922H31.8451V36.4289L31.7313 36.4424C31.6001 36.458 31.6001 36.4896 31.6383 36.611ZM34.2844 38.0919C34.2844 37.8866 34.1504 37.7713 33.9369 37.6724L33.8831 37.6484C33.5963 37.5144 33.2716 37.3332 33.2716 36.9588C33.2716 36.5636 33.5584 36.2421 34.1075 36.2421C34.2157 36.2421 34.3267 36.256 34.4299 36.2839C34.509 36.3047 34.5675 36.3184 34.6122 36.3327C34.6256 36.4714 34.6482 36.6405 34.688 36.8792L34.5341 36.9041C34.4578 36.673 34.3366 36.4231 34.0587 36.4231C33.8788 36.4231 33.7528 36.5608 33.7528 36.7279C33.7528 36.9041 33.8911 37.0037 34.1159 37.1058L34.1905 37.1413C34.5131 37.2876 34.791 37.4643 34.791 37.8741C34.791 38.3059 34.4444 38.6202 33.9005 38.6202C33.762 38.6202 33.6199 38.5907 33.5237 38.5587C33.4205 38.5222 33.3461 38.4962 33.3056 38.4754C33.2774 38.3156 33.2328 38.126 33.1883 37.8909L33.3422 37.8463C33.4166 38.0496 33.6238 38.437 33.9651 38.437C34.147 38.437 34.2855 38.3187 34.2844 38.0919ZM27.9302 40.4883H29.0618V40.6264C28.8212 40.6474 28.7934 40.6712 28.7934 41.048V42.2037C28.7934 42.5813 28.8214 42.6063 29.0618 42.626V42.7623H27.9302V42.626C28.1713 42.6063 28.1997 42.5803 28.1997 42.2037V41.048C28.1997 40.6712 28.1702 40.6474 27.9302 40.6264V40.4883ZM31.0005 42.1337L31.1503 42.1586C31.1297 42.2896 31.058 42.6548 31.0265 42.7621H29.2925V42.6258C29.5569 42.6061 29.5843 42.5802 29.5843 42.2035V41.0491C29.5843 40.6736 29.5569 40.6487 29.3207 40.6264V40.4906H30.4597V40.6264C30.2069 40.6487 30.1798 40.6738 30.1798 41.0491V42.249C30.1798 42.4313 30.1859 42.5176 30.2487 42.5486C30.3059 42.5776 30.3849 42.5811 30.4932 42.5811C30.6036 42.5811 30.7564 42.5698 30.828 42.4781C30.8854 42.4116 30.9455 42.3177 31.0005 42.1337ZM32.9542 42.1337L33.1038 42.1586C33.0821 42.2896 33.0114 42.6548 32.9768 42.7621H31.2442V42.6258C31.5074 42.6061 31.5377 42.5802 31.5377 42.2035V41.0491C31.5377 40.6736 31.5074 40.6487 31.2721 40.6264V40.4906H32.4103V40.6264C32.1592 40.6487 32.1304 40.6738 32.1304 41.0491V42.249C32.1304 42.4313 32.1365 42.5176 32.1998 42.5486C32.2561 42.5776 32.3364 42.5811 32.4447 42.5811C32.556 42.5811 32.7099 42.5698 32.7805 42.4781C32.8367 42.4116 32.8957 42.3177 32.9542 42.1337ZM34.3206 40.4881H35.1665V40.6242C34.9677 40.6498 34.9181 40.666 34.7802 40.9865C34.7594 41.0322 34.3334 42.0723 34.0704 42.7858H33.8018C33.5612 42.1556 33.2326 41.2932 33.1057 40.9637C32.9904 40.6652 32.9221 40.6463 32.7533 40.6244V40.4883H33.8836V40.6244L33.7609 40.6381C33.634 40.6539 33.634 40.686 33.6703 40.8078C33.7359 41.0033 34.0119 41.693 34.1396 42.0337C34.2499 41.7376 34.4724 41.0699 34.5289 40.9052C34.6026 40.6908 34.5796 40.6539 34.4236 40.6361L34.3187 40.6244L34.3206 40.6242V40.4881ZM40.7821 34.3703H39.9189V34.2325C40.0854 34.2205 40.1539 34.1848 40.1747 34.0549C40.1931 33.9466 40.2113 33.762 40.2295 33.4434L40.2692 32.7369C40.2926 32.2962 40.264 32.2576 39.9882 32.2346V32.0965H40.8107L41.4244 33.4809L41.9575 32.0965H42.8076V32.2346C42.5435 32.2586 42.5286 32.2723 42.5376 32.6397L42.5721 33.8108C42.5834 34.1985 42.5905 34.2089 42.8444 34.2327V34.3704H41.7473V34.2327C42.0106 34.2089 42.0217 34.1987 42.0176 33.8108L42.0072 32.5791H41.9914L41.3187 34.3316H41.1277L40.4897 32.7029H40.4797L40.4563 33.4791C40.447 33.7781 40.4513 33.9468 40.4634 34.0551C40.4756 34.1839 40.5528 34.2164 40.7823 34.2327L40.7821 34.3703ZM44.2145 34.3693H43.08V34.2336C43.3211 34.2128 43.3512 34.1889 43.3512 33.8106V32.6547C43.3512 32.2795 43.3211 32.2556 43.08 32.2346V32.0965H44.2145V32.2346C43.9717 32.2545 43.9433 32.2795 43.9433 32.6547V33.8097C43.9433 34.1881 43.9738 34.2119 44.2145 34.2327V34.3693ZM44.3914 32.2328V32.0956H45.1655L46.3303 33.5468H46.3373V33.0785C46.3373 32.7113 46.3223 32.5186 46.3095 32.4106C46.2922 32.2881 46.1968 32.2433 45.9639 32.2328V32.0956H46.8589V32.2328C46.6859 32.2389 46.5929 32.2881 46.5742 32.4106C46.5634 32.5186 46.5478 32.7113 46.5478 33.0785V34.3944H46.2451L44.952 32.7427H44.9427V33.3851C44.9427 33.7543 44.9591 33.9459 44.9737 34.053C44.9919 34.1768 45.084 34.2225 45.3169 34.2353V34.3693H44.4452V34.2353C44.6006 34.2256 44.6903 34.1768 44.7062 34.053C44.7235 33.9459 44.7356 33.7543 44.7356 33.3851V32.7427C44.7356 32.4847 44.7276 32.4401 44.6576 32.3419C44.6056 32.2682 44.5197 32.2433 44.3914 32.2328ZM46.8018 34.3704H47.6165V34.2362L47.514 34.2236C47.3522 34.2067 47.3522 34.1713 47.3989 34.0209L47.5036 33.6868H48.0794L48.2034 34.0426C48.2502 34.1681 48.2441 34.2037 48.113 34.2205L48.0085 34.2372V34.3714H49.1076V34.2372C48.9369 34.2128 48.8719 34.1967 48.7616 33.8919C48.6282 33.5368 48.478 33.1219 48.3256 32.707L48.0898 32.0462L47.848 32.0945L47.1491 33.903C47.0312 34.1967 46.9785 34.211 46.8018 34.2372V34.3704ZM47.7808 32.8062H47.793L48.0124 33.4744H47.5654L47.7808 32.8062ZM42.8665 36.4766L42.7824 36.4764V38.0078C42.7824 38.3852 42.8095 38.41 43.1032 38.4297V38.5658H41.8795V38.4297C42.1592 38.41 42.1862 38.3852 42.1862 38.0078V36.4764H42.1247C41.8951 36.4764 41.7988 36.5172 41.744 36.5807C41.7024 36.6325 41.6599 36.7238 41.6141 36.9193H41.4667C41.4817 36.6252 41.5031 36.383 41.5092 36.2057H41.6168C41.6698 36.2859 41.7043 36.293 41.7978 36.293H43.1934C43.2853 36.293 43.2999 36.2716 43.3571 36.2057H43.4657C43.4698 36.3527 43.487 36.6501 43.5043 36.9093L43.351 36.9193C43.2971 36.7097 43.2595 36.6182 43.2056 36.5588C43.1468 36.4964 43.033 36.4766 42.8665 36.4766ZM44.0185 38.0069V36.8508C44.0185 36.4754 43.9901 36.4508 43.7491 36.4289V36.2922H44.8809V36.4289C44.6402 36.4506 44.6116 36.4754 44.6116 36.8508V38.0069C44.6116 38.3841 44.6402 38.4091 44.8809 38.429V38.565H43.7491V38.429C43.9901 38.4091 44.0187 38.3841 44.0185 38.0069ZM47.5202 37.4015C47.5202 36.7097 47.0282 36.2406 46.3852 36.2406C45.5527 36.2406 45.1735 36.8937 45.1735 37.4593C45.1735 38.1023 45.6318 38.6183 46.3396 38.6183C47.0089 38.6192 47.5202 38.1513 47.5202 37.4015ZM45.8233 37.3419C45.8233 36.7314 46.0478 36.4212 46.318 36.4212C46.6171 36.4212 46.8701 36.8114 46.8701 37.5125C46.8701 38.1459 46.7062 38.4368 46.4038 38.4368C46.0606 38.437 45.8233 37.9753 45.8233 37.3419ZM43.8494 42.6249V42.761H42.7529V42.6249C43.0165 42.6011 43.0267 42.5894 43.0226 42.2015L43.0128 40.9717H42.9972L42.3228 42.7235H42.1368L41.4949 41.0948H41.4856L41.4622 41.8698C41.4524 42.1694 41.4563 42.3375 41.4708 42.4467C41.4847 42.5768 41.5602 42.6082 41.7884 42.6249V42.761H40.9241V42.6249C41.0917 42.6102 41.1598 42.5768 41.1814 42.4467C41.1988 42.3375 41.2168 42.1538 41.235 41.8352L41.2759 41.1293C41.3004 40.689 41.2727 40.6509 40.9933 40.6266V40.4885H41.816L42.4297 41.8738L42.9654 40.4885H43.8156V40.6266C43.547 40.6509 43.5347 40.6632 43.5453 41.0315L43.58 42.2015C43.5897 42.5893 43.5958 42.6021 43.8494 42.6249ZM45.8085 42.1139L45.9639 42.1378C45.9455 42.3095 45.8718 42.6678 45.8408 42.761H44.0632V42.6269C44.3294 42.603 44.3569 42.5802 44.3569 42.2035V41.0491C44.3569 40.6701 44.3294 40.6452 44.0959 40.6253V40.4893H45.7515C45.7576 40.5487 45.7723 40.8046 45.794 41.0667L45.6377 41.0769C45.6015 40.9062 45.5649 40.8087 45.5061 40.7514C45.4487 40.6925 45.3351 40.6712 45.148 40.6712H45.091C44.957 40.6712 44.9503 40.6712 44.9503 40.7929V41.4679H45.1256C45.4252 41.4679 45.4372 41.448 45.4712 41.1829H45.6236V42.0068H45.4712C45.4374 41.701 45.4252 41.6802 45.1256 41.6802H44.9503V42.249C44.9503 42.4292 44.957 42.5178 45.0199 42.5497C45.0753 42.5776 45.156 42.5802 45.2648 42.5802C45.4038 42.5802 45.5594 42.5582 45.6359 42.476C45.6923 42.4116 45.7554 42.2846 45.8085 42.1139ZM47.9397 42.2817C47.8053 41.9267 47.6549 41.5128 47.5046 41.0968L47.2688 40.4365L47.0281 40.4842L46.3282 42.293C46.2122 42.5865 46.1604 42.6011 45.9808 42.626V42.7611H46.7955V42.626L46.6932 42.6145C46.5313 42.5976 46.5313 42.5625 46.5805 42.4116L46.6856 42.0775H47.2586L47.3824 42.4315C47.4283 42.5584 47.4231 42.5944 47.2922 42.6113L47.1875 42.6269V42.7623H48.2866V42.6269C48.1129 42.6041 48.0509 42.5876 47.9397 42.2817ZM46.7427 41.8677L46.9601 41.1998H46.9722L47.1916 41.8677H46.7427ZM34.9419 70.8949C34.9419 71.3996 34.532 71.8095 34.0254 71.8095C33.5218 71.8095 33.1153 71.3996 33.1153 70.8949C33.1153 70.3909 33.5218 69.9787 34.0254 69.9787C34.532 69.9787 34.9419 70.3921 34.9419 70.8949ZM44.2166 72.4174C44.2166 72.9223 43.8072 73.3316 43.3027 73.3316C42.7974 73.3316 42.3874 72.9223 42.3874 72.4174C42.3874 71.9125 42.7974 71.5025 43.3027 71.5025C43.8072 71.5025 44.2166 71.9125 44.2166 72.4174ZM38.9735 6.32538C38.9735 6.83047 38.5642 7.23978 38.0591 7.23978C37.554 7.23978 37.1447 6.83047 37.1447 6.32538C37.1447 5.82029 37.554 5.41099 38.0591 5.41099C38.5642 5.41099 38.9735 5.82029 38.9735 6.32538ZM60.7386 14.8473C60.7386 15.352 60.3295 15.7614 59.825 15.7614C59.3197 15.7614 58.9104 15.352 58.9104 14.8473C58.9104 14.3419 59.3197 13.9326 59.825 13.9326C60.3295 13.9326 60.7386 14.3419 60.7386 14.8473ZM10.8524 53.9613C11.673 53.3833 12.3294 52.9871 12.9366 52.9871C13.8268 52.9894 14.4728 53.567 14.8717 54.1414C15.2229 54.6478 15.401 55.1872 15.3987 55.748C15.3987 56.3878 15.1843 56.907 14.0399 57.6985L10.7386 60.0528L10.1303 59.1763C10.1303 59.1763 13.5129 56.7678 13.5655 56.7305C14.1513 56.3271 14.401 56.0303 14.401 55.5683C14.401 55.2757 14.295 54.9587 14.0826 54.6529C13.7531 54.1777 13.3264 54.0253 12.9524 54.0233C12.614 54.0233 12.2503 54.2618 11.5969 54.7159L8.49415 56.8214L7.89551 55.9622L10.8524 53.9613ZM7.3544 50.8357L11.8974 49.0366L12.2356 49.9642L6.02383 52.3491L5.67652 51.3984L9.29012 47.0022L4.65613 48.6214L4.31941 47.6949L10.601 45.4913L10.9502 46.4438L7.3544 50.8357ZM10.1171 42.7715L3.53847 43.7487L3.38199 42.6951L9.9606 41.7179L10.1171 42.7715ZM9.72579 37.4207L2.98679 39.4314L2.99384 38.3247L8.45814 36.794L3.18448 34.7634L3.21029 33.661L9.77052 36.3247L9.72579 37.4207ZM11.2819 21.8252C11.1883 21.8521 11.0783 21.9097 10.9676 21.9863C10.9942 21.8679 11.0378 21.7538 11.0385 21.6307C11.0406 21.4434 11.0137 21.2574 10.9563 21.0898C10.8303 20.6998 10.5515 20.3833 10.1318 20.1507C9.8173 19.9769 9.50341 19.888 9.1858 19.888C8.24486 19.8906 7.81012 20.4278 7.20869 21.5117L6.4285 22.911L12.2863 26.0876L12.7935 25.1752L10.3571 23.8473L10.4999 23.5842C10.9119 22.8426 11.0489 22.7298 12.0975 22.8187L13.9935 22.988L14.5356 22.0042L12.3489 21.8167C11.9089 21.7749 11.5639 21.7441 11.2819 21.8252ZM9.71558 23.1825L9.581 23.4292L7.70691 22.4231L8.00168 21.903C8.38909 21.1952 8.66901 20.9253 9.08073 20.9273C9.23258 20.9273 9.42526 20.9671 9.61961 21.0721C9.86872 21.2114 10.0599 21.4413 10.1305 21.6877C10.1576 21.7836 10.1681 21.8802 10.1681 21.975C10.1665 22.3704 9.94613 22.7665 9.71558 23.1825ZM17.3088 9.85007L21.3421 15.1347L20.4957 15.7808L16.4624 10.4962L17.3088 9.85007ZM23.1602 7.34132L25.8102 12.4306L24.8672 12.9239L22.2168 7.8323L20.5319 8.70846L20.1124 7.90098L24.4126 5.66288L24.8304 6.47092L23.1602 7.34132ZM31.9617 3.32863L31.0601 7.77402L31.7901 10.3015L30.7751 10.5928L30.0616 8.08735L26.9048 4.79433L27.9978 4.47598L30.2695 6.84217L30.8416 3.64085L31.9617 3.32863ZM54.5031 7.00255L57.6764 8.87367L57.2171 9.65757L54.9478 8.3205L54.0154 9.90353L56.1485 11.1621L55.6994 11.9295L53.5629 10.6711L52.0368 13.2662L51.1267 12.7284L54.5031 7.00255ZM67.5656 28.348L64.6284 27.6801L64.273 26.5903L68.2096 27.5396L70.6294 24.643L71.0058 25.7904L69.2053 27.8518L71.8803 28.4541L72.2364 29.5324L68.5754 28.6487L65.9742 31.7661L65.6035 30.636L67.5656 28.348ZM66.3061 34.0729L72.9349 33.532L73.2337 37.2079L72.3273 37.2805L72.114 34.6574L70.2838 34.8072L70.4811 37.2764L69.5955 37.3471L69.3944 34.8778L66.3954 35.1243L66.3061 34.0729ZM69.2394 40.0009C68.4715 40.0009 67.7652 40.2075 67.2061 40.6133C66.2026 41.34 66.022 42.3836 66.022 42.9952C66.022 45.2432 68.1307 46.1431 69.7195 46.1431C70.4822 46.1431 71.1779 45.9359 71.7261 45.5372C72.8476 44.7271 72.9085 43.5094 72.9085 43.1146C72.9072 41.1531 71.1063 40.0009 69.2394 40.0009ZM71.2275 44.6456C70.8403 44.9255 70.3348 45.0646 69.7636 45.0646C68.4679 45.0646 66.9562 44.3598 66.9562 43.0541C66.9562 42.58 67.121 41.9462 67.7035 41.5223C68.0987 41.2349 68.6118 41.0812 69.1865 41.0812C69.8468 41.0812 71.0367 41.2683 71.6589 42.1296C71.8755 42.4237 71.9859 42.7691 71.9822 43.1352C71.9798 43.6453 71.7738 44.2515 71.2275 44.6456ZM66.6087 23.6416C67.4316 23.12 68.3456 22.1519 68.3456 20.8401C68.3456 20.2962 68.1923 19.7599 67.8775 19.2623C67.2953 18.344 66.3834 17.8697 65.3797 17.8697C64.7094 17.8697 63.9942 18.0821 63.3057 18.5177C62.0265 19.3295 61.5604 20.4889 61.5604 21.3365C61.5604 21.885 61.7128 22.4224 62.0248 22.9167C62.7319 24.0377 63.7955 24.3089 64.5147 24.3059C65.2013 24.3039 65.9275 24.0763 66.6087 23.6416ZM62.8386 22.4486C62.6473 22.1508 62.5559 21.8263 62.5528 21.503C62.5507 20.7488 63.0283 19.9782 63.8986 19.4247C64.4755 19.0575 65.0424 18.8767 65.5503 18.8808C66.1911 18.8808 66.7127 19.1637 67.0611 19.7107C67.2658 20.0373 67.3601 20.3816 67.3601 20.725C67.3601 21.4584 66.8953 22.179 66.0522 22.7118C65.4628 23.0882 64.8675 23.2855 64.3439 23.2855C63.7486 23.2855 63.2078 23.0336 62.8386 22.4486ZM47.2434 4.17527C45.8551 4.17527 44.6511 5.10823 44.1625 6.76551C44.0549 7.13286 43.988 7.49687 43.988 7.85012C43.988 8.51467 44.1002 9.04129 44.3699 9.53747C44.9858 10.6639 46.1109 11.0472 46.9662 11.0472C47.4496 11.0472 47.9152 10.936 48.3425 10.7023C49.4642 10.0893 50.2043 8.66577 50.2043 7.30308C50.2043 6.70982 50.0909 6.15386 49.8284 5.67662C49.2882 4.69744 48.2879 4.17527 47.2434 4.17527ZM46.9005 10.1051C46.4211 10.1051 45.7227 9.86993 45.335 9.15953C45.1458 8.81612 45.063 8.39921 45.063 7.96744C45.063 6.77739 45.8551 5.10712 47.3063 5.10712C48.119 5.10712 49.1399 5.71133 49.1399 7.21584C49.1399 8.17274 48.4657 10.1051 46.9005 10.1051ZM10.3035 32.1891L3.87093 30.4262L4.96947 26.7324L5.84322 26.9784L5.03296 29.641L6.80699 30.1277L7.4927 27.7101L8.34881 27.9539L7.66644 30.3629L9.67288 30.913L10.4176 28.2856L11.3088 28.5386L10.3035 32.1891ZM17.7722 17.6037C17.7722 18.1674 17.5505 18.6686 17.1087 19.1648C16.2621 20.1136 15.1201 20.2186 15.1201 20.2186L14.8944 19.3272C15.5675 19.1708 16.077 18.9139 16.3835 18.5675C16.6283 18.2963 16.7479 17.9924 16.7479 17.7255C16.7479 17.4745 16.6406 17.2393 16.4371 17.0576C16.2693 16.9089 16.0688 16.8571 15.8472 16.861C15.4206 16.861 14.9079 17.1053 14.4879 17.28C13.6787 17.6145 12.8263 17.8831 12.0638 17.2013C11.6767 16.8549 11.4701 16.4192 11.4701 15.9357C11.4701 15.4235 11.6717 14.8796 12.1035 14.3972C13.0268 13.3621 13.9716 13.4317 13.9716 13.4317L14.1315 14.3109C14.1315 14.3109 13.4047 14.3326 12.836 14.9721C12.587 15.2507 12.461 15.5403 12.461 15.8013C12.461 16.0186 12.5464 16.2056 12.7149 16.3563C13.1755 16.7673 13.9625 16.3115 14.4539 16.114C14.8318 15.957 15.3698 15.7387 15.9118 15.7387C16.3096 15.7387 16.7269 15.8529 17.1056 16.1922C17.5494 16.5865 17.7722 17.0825 17.7722 17.6037ZM64.5427 48.6021L67.055 49.7407L66.9311 50.0221C66.5887 50.7951 66.4572 50.9215 65.4092 50.927H63.5067L63.0517 51.953L65.2445 51.9469C65.6908 51.9469 66.0359 51.9469 66.3061 51.8424C66.3954 51.809 66.4951 51.7551 66.5864 51.6788C66.5814 51.7356 66.564 51.7908 66.5619 51.8483C66.558 52.0932 66.6044 52.335 66.6961 52.5465C66.9972 53.247 67.8179 53.5926 68.4152 53.5904C69.4733 53.5904 69.8774 52.9567 70.3929 51.7926C70.4122 51.749 71.009 50.3674 71.009 50.3674L64.9637 47.6452L64.5427 48.6021ZM67.7538 50.3544L67.8647 50.1006L69.7844 50.9597L69.5698 51.4737C69.2116 52.2842 68.9777 52.5444 68.4657 52.5444C68.1656 52.5444 67.6603 52.3736 67.4661 51.8769C67.4175 51.751 67.3976 51.622 67.3995 51.4951C67.403 51.1303 67.5751 50.7524 67.7538 50.3544ZM61.0418 54.8926C60.3529 55.7559 59.8287 56.5269 59.8287 57.5233C59.8287 58.3709 60.2126 59.3335 61.1867 60.1076C61.8307 60.6255 62.5589 60.9026 63.3099 60.9026C64.2358 60.9026 64.9784 60.6255 66.1276 59.1813L67.1775 57.8596L61.9838 53.7124L61.0418 54.8926ZM65.8224 58.129L65.5349 58.4924C64.8291 59.3753 64.3498 59.8973 63.4115 59.8973C62.881 59.8973 62.3863 59.694 61.8712 59.2808C61.3471 58.8652 60.7923 58.2122 60.7923 57.382C60.7923 56.8042 61.1053 56.2527 61.5886 55.6494L62.0289 55.0947L65.8224 58.129ZM76.1895 38.0837C76.1895 17.1144 59.1047 0.0563965 38.1029 0.0563965C17.1035 0.0563965 0.0184326 17.1135 0.0184326 38.0837C0.0202889 50.6622 6.23006 62.3867 16.6374 69.4899C17.6619 73.3019 21.1465 76.1207 25.2912 76.1207C26.4118 76.1207 27.4973 75.9089 28.5326 75.5103C29.925 75.9696 31.3658 76.3512 32.799 76.6458C32.3953 77.8019 31.8046 78.8949 31.2418 79.8445C31.2418 79.8445 31.2566 79.8405 31.2754 79.8362C31.2628 79.8445 31.2527 79.8497 31.2418 79.8557L32.0346 80.6479C32.2395 80.5392 32.4664 80.4696 32.7136 80.4696C33.497 80.4696 34.1337 81.1075 34.1337 81.8935C34.1337 82.6753 33.497 83.3152 32.7136 83.3152C32.0281 83.3152 31.4274 82.8775 31.1141 82.4062C31.1141 82.4062 30.9283 83.0481 30.9283 83.8905C30.9227 86.6225 33.9037 89.7451 38.0385 91.0564C42.173 89.7724 45.1542 86.6286 45.1525 83.8944C45.1525 82.9547 44.9643 82.4062 44.9643 82.4062C44.6472 82.7882 44.1332 83.3152 43.3575 83.3152C42.5723 83.3152 41.9363 82.6753 41.9363 81.8935C41.9363 81.109 42.5723 80.4696 43.3575 80.4696C43.6307 80.4696 43.8835 80.5505 44.102 80.689L44.8727 79.9166C44.8924 79.9227 44.9026 79.9236 44.9026 79.9236C44.4659 78.8836 44.1486 77.9267 43.9312 77.0054C50.7796 76.085 56.5591 73.1867 61.1522 68.3563L61.1485 68.3522C70.7083 61.0888 76.1895 50.0711 76.1895 38.0837ZM25.2928 75.0511C20.9688 75.0511 17.4512 71.5235 17.4512 67.1883C17.4512 65.8293 17.7985 64.5506 18.405 63.4333C18.807 63.8019 19.2388 64.1808 19.6882 64.5649C19.3062 65.3725 19.0871 66.2672 19.0871 67.2139C19.0871 69.5734 20.2759 71.5209 22.5288 72.8503C23.8199 73.6108 25.2841 74.3004 26.835 74.9009C26.3281 75.0004 25.8159 75.0511 25.2928 75.0511ZM38.105 63.6102C36.4739 63.6102 34.8645 63.4533 33.2902 63.1517C31.7727 60.1726 28.6564 58.2526 25.2926 58.2526C24.4662 58.2526 23.6688 58.3766 22.9105 58.5838C16.4416 53.779 12.585 46.1388 12.585 38.0835C12.585 24.0086 24.0324 12.5565 38.1048 12.5565C52.1751 12.5565 63.6244 24.0086 63.6244 38.0835C63.6246 52.1574 52.1753 63.6102 38.105 63.6102ZM43.7829 64.0637C43.0168 65.1557 42.5643 66.6751 42.4282 68.2109C40.0127 67.5893 37.8165 66.7514 35.9066 65.881C36.2699 65.1759 37.3131 64.6783 38.1037 64.6783C40.0541 64.6783 41.9525 64.4611 43.7829 64.0637ZM35.6939 64.5669C35.3694 64.8082 35.1067 65.0976 34.922 65.4137C33.9596 64.9486 32.7474 64.3432 31.9544 63.9005C33.078 64.1481 34.5411 64.4611 35.6939 64.5669ZM25.2928 59.3233C27.9211 59.3233 30.3786 60.6712 31.8213 62.8296C30.5565 62.5096 29.3187 62.0925 28.1088 61.5785L28.1049 61.5844L28.0668 61.5622C27.2196 61.1638 26.3141 60.9628 25.3734 60.9628C23.2812 60.9628 21.4283 61.9869 20.2818 63.5591C19.8016 63.292 19.321 63.0115 18.8486 62.7179C20.2657 60.6684 22.6233 59.3233 25.2928 59.3233ZM43.3593 79.3732C41.9545 79.3732 40.8016 80.3667 40.8016 81.8935C40.8016 83.3843 41.9708 84.4082 43.3593 84.4082C43.568 84.4082 43.7707 84.3735 43.9648 84.325C43.6754 86.4369 41.2131 88.8014 38.0406 89.8608C34.8953 88.8085 32.435 86.4256 32.1096 84.325C32.3051 84.3757 32.5048 84.4082 32.716 84.4082C34.2293 84.4082 35.2706 83.3497 35.2706 81.8935C35.2706 80.4996 34.1797 79.4096 32.7725 79.3803C33.1998 78.5921 33.6115 77.757 33.9161 76.8606C35.6629 77.166 37.3831 77.3304 38.9826 77.3304C40.2954 77.3304 41.5667 77.2593 42.8125 77.1335C42.9766 77.8528 43.2214 78.6081 43.511 79.3862C43.4597 79.3827 43.4093 79.3732 43.3593 79.3732ZM38.9813 76.2618C33.8747 76.2618 27.4996 74.525 23.1204 71.942C21.7964 71.1587 20.2113 69.7032 20.2113 67.2158C20.2113 66.5453 20.3433 65.9012 20.5764 65.3133C22.2112 66.6645 23.8986 67.9318 24.9617 68.5117C25.2039 68.6438 25.3444 68.7108 25.6314 68.7108C26.3095 68.7108 26.8619 68.1562 26.8619 67.4736C26.8619 66.9539 26.5811 66.5299 26.1118 66.3248C25.2047 65.9307 23.3098 65.1466 21.2673 64.0871C22.2125 62.8422 23.6998 62.0312 25.3734 62.0312C26.1391 62.0312 26.8759 62.1959 27.5617 62.5209L28.9641 63.3373C33.4147 66.0566 44.8636 73.0278 58.6876 69.1944C53.4405 73.9277 46.9766 76.2618 38.9813 76.2618ZM60.4229 67.5366C54.2348 69.7266 48.4605 69.5766 43.5334 68.4762C43.6946 66.2762 44.6066 63.9246 45.9973 63.4856C56.8496 60.1206 64.7523 50.0069 64.7523 38.0837C64.7523 23.4175 52.7968 11.4867 38.105 11.4867C23.4121 11.4867 11.4597 23.4175 11.4597 38.0837C11.4597 46.2415 15.268 53.9906 21.6822 59.0146C20.1617 59.6838 18.8605 60.7675 17.921 62.1135C17.4356 61.7832 16.9673 61.44 16.5327 61.0825L16.2905 61.3253C16.5804 61.6767 17.0328 62.1411 17.5728 62.657C16.7837 63.9855 16.3259 65.5335 16.3259 67.187C16.3259 67.4445 16.3421 67.696 16.3642 67.9488C6.81701 60.9917 1.14407 49.9325 1.14407 38.0822C1.1437 17.7056 17.7254 1.12691 38.105 1.12691C58.4848 1.12691 75.0638 17.7056 75.0638 38.0837C75.0638 49.755 69.7272 60.4794 60.4229 67.5366Z" fill="#13131A"/>
</svg>
