<svg width="74" height="73" viewBox="0 0 74 73" fill="none" xmlns="http://www.w3.org/2000/svg">
<g opacity="0.3">
<path d="M37.3466 72.9564C17.2755 72.9564 0.946594 56.6286 0.946594 36.5564C0.946594 16.4853 17.2755 0.156372 37.3466 0.156372C57.4188 0.156372 73.7477 16.4853 73.7477 36.5564C73.7477 56.6286 57.4188 72.9564 37.3466 72.9564ZM37.3466 2.37072C18.4964 2.37072 3.16094 17.7073 3.16094 36.5564C3.16094 55.4066 18.4964 70.7432 37.3466 70.7432C56.1968 70.7432 71.5322 55.4066 71.5322 36.5564C71.5322 17.7073 56.1968 2.37072 37.3466 2.37072Z" fill="#13131A"/>
<path d="M23.4214 25.4976C29.5579 25.4976 33.9197 30.1386 33.9197 36.5566C33.9197 42.9746 29.5579 47.6168 23.4214 47.6168C17.2826 47.6168 12.9532 42.9758 12.9532 36.5566C12.9532 30.1386 17.2826 25.4976 23.4214 25.4976ZM23.4214 45.4048C28.1571 45.4048 31.4584 41.6973 31.4584 36.5566C31.4584 31.4159 28.1559 27.7084 23.4214 27.7084C18.6846 27.7084 15.4145 31.4159 15.4145 36.5566C15.4145 41.6973 18.6846 45.4048 23.4214 45.4048Z" fill="#13131A"/>
<path d="M44.7608 27.7075C42.1126 27.7075 40.1498 29.0472 40.1498 31.4461C40.1498 33.2531 41.1779 34.219 43.6704 34.7486L47.3155 35.4963C50.9919 36.2441 52.6743 38.4861 52.6743 41.3224C52.6743 45.2803 49.4341 47.6158 45.167 47.6158C40.8352 47.6158 37.8443 45.2169 37.0654 41.3859L39.5278 41.1355C40.2132 44.0341 42.4241 45.4038 45.1958 45.4038C48.031 45.4038 50.213 44.0018 50.213 41.4459C50.213 39.5466 48.9668 38.2692 46.412 37.7707L42.6422 37.023C40.1498 36.5233 37.6885 34.8109 37.6885 31.5396C37.6885 27.9267 40.6471 25.4966 44.8243 25.4966C48.6875 25.4966 51.4904 27.584 52.4262 31.2903L49.9949 31.5707C49.3095 29.4522 47.7829 27.7075 44.7608 27.7075Z" fill="#13131A"/>
<path d="M59.5273 47.3047H57.066V25.8074H59.5273V47.3047Z" fill="#13131A"/>
</g>
</svg>
