<svg width="107" height="23" viewBox="0 0 107 23" fill="none" xmlns="http://www.w3.org/2000/svg">
<path opacity="0.3" d="M16.5105 3.15732L11.902 11.0852L9.53761 7.08164H13.3446L14.627 4.86182H6.25154L13.3446 17.0312L22.722 0.9375H0L12.8237 22.9375H14.8274L3.28607 3.15732H16.5105ZM20.0771 7.042H21.1591L14.3465 18.6961L16.8311 22.9375L27.3705 4.86182H21.3594L20.0771 7.042ZM38.7115 10.6096C39.553 10.1735 40.1541 9.14291 40.1541 7.95372C40.1541 5.77354 38.1104 4.86182 36.1067 4.86182H32.8607V17.0312H36.9082C39.7534 17.0312 41.4766 15.6834 41.4766 13.6618C41.4766 11.878 40.3144 10.7681 38.7115 10.6096ZM34.103 5.93209H36.0666C37.9501 5.93209 38.9119 6.76453 38.9119 8.07264C38.9119 9.5393 38.0703 10.2132 36.7078 10.2132H34.103V5.93209ZM36.828 15.9609H34.103V11.2042H37.0685C39.0722 11.2042 40.2343 11.997 40.2343 13.5825C40.2343 15.287 38.6313 15.9609 36.828 15.9609ZM50.894 8.50867C50.894 6.13029 49.1307 4.86182 46.6862 4.86182H43.0795V17.0312H44.3218V5.93209H46.566C48.4094 5.93209 49.6517 6.92309 49.6517 8.50867C49.6517 9.9357 48.4895 10.887 46.5259 10.887H45.7645L49.812 17.0312H51.3348L47.7281 11.8384C49.5315 11.6402 50.894 10.2925 50.894 8.50867ZM91.9298 4.46543C88.3231 4.46543 85.3977 7.35912 85.3977 10.9267C85.3977 14.4943 88.3231 17.388 91.9298 17.388C95.5364 17.388 98.4618 14.4943 98.4618 10.9267C98.4618 7.35912 95.5364 4.46543 91.9298 4.46543ZM91.9298 16.3177C89.0043 16.3177 86.64 13.8997 86.64 10.9267C86.64 7.95372 89.0043 5.5357 91.9298 5.5357C94.8552 5.5357 97.2195 7.95372 97.2195 10.9267C97.2195 13.8997 94.8552 16.3177 91.9298 16.3177ZM103.391 10.2528C102.028 9.81678 100.706 9.42038 100.706 7.87444C100.706 6.32849 102.109 5.57534 103.311 5.57534C104.473 5.57534 105.314 6.05101 105.835 6.80417L106.837 6.01137C106.236 5.21858 104.994 4.54471 103.351 4.54471C101.548 4.54471 99.4236 5.5357 99.4236 7.91408C99.4236 10.1339 101.107 10.8078 102.71 11.3231C104.273 11.7988 105.715 12.2348 105.715 13.9393C105.715 15.4852 104.273 16.278 102.99 16.278C101.708 16.278 100.706 15.6042 100.185 14.7321L99.103 15.5249C99.9846 16.7141 101.467 17.3483 102.99 17.3483C104.954 17.3483 106.998 16.278 106.998 13.86C107.078 11.3627 105.154 10.8474 103.391 10.2528ZM84.2756 4.86182L79.7473 15.1681L75.2189 4.86182H73.8163L79.7473 17.9429L85.6381 4.86182H84.2756ZM51.976 17.0312H53.3385L57.8669 6.72489L62.3952 17.0312H63.7978L57.8669 3.95011L51.976 17.0312ZM64.3989 17.0312H65.7614L70.2898 6.72489L74.8182 17.0312H76.2207L70.2898 3.95011L64.3989 17.0312Z" fill="#13131A"/>
</svg>
