<svg width="69" height="24" viewBox="0 0 69 24" fill="none" xmlns="http://www.w3.org/2000/svg">
<path opacity="0.3" d="M38.7649 13.4173H46.8528C46.9888 15.6732 46.479 17.582 45.2216 19.3519C42.2311 23.5513 33.1917 23.8983 30.3031 17.4431C28.7059 13.8685 28.7059 10.2244 30.3711 6.68447C32.0702 3.0404 35.0607 1.37455 39.0027 1.61748C42.537 1.82572 44.9498 3.69981 46.1392 7.10093C46.445 7.93386 46.9208 7.79504 47.6004 7.65622C47.5325 7.34387 47.4985 7.03152 47.3965 6.75388C46.547 3.90804 44.6779 2.06865 41.9253 1.0622C41.2456 0.819259 40.566 0.645732 39.8863 0.4375H36.7259C36.522 0.506911 36.3181 0.611027 36.1142 0.680438C32.9878 1.33984 30.7109 3.10981 29.2156 5.99036C27.9583 8.41974 27.6864 10.9879 27.8903 13.6603C28.2301 18.3455 31.1527 22.0937 35.3666 23.1348C36.556 23.4125 37.8473 23.4819 39.0707 23.4125C42.2311 23.3083 44.7799 22.059 46.411 19.1784C46.479 19.0396 46.6149 18.9355 46.8528 18.6231C46.8528 19.9419 46.8868 21.0525 46.8528 22.1284C46.8188 23.0654 47.2606 23.1001 47.9403 22.8225V12.3067H38.6629C38.6969 12.6885 38.7309 13.0008 38.7649 13.4173ZM55.7904 21.8854V1.0622H54.567V22.996C56.3681 22.996 58.1012 22.996 59.8343 22.996C62.7229 23.0307 65.6114 23.0307 68.5 23.0654V21.8507H55.7904V21.8854ZM19.0547 1.0622C15.5885 0.958081 12.1562 1.02749 8.68991 1.02749C8.58796 1.02749 8.51999 1.0969 8.41804 1.13161V22.9266H9.7094V13.1744C10.1852 13.1744 10.525 13.1744 10.8648 13.1744C13.1077 13.1744 15.3506 13.2091 17.5595 13.1744C19.2246 13.1397 20.8218 12.862 22.2151 11.8556C24.1182 10.4674 24.8658 7.72563 24.0842 4.9492C23.4385 2.69335 21.6034 1.16631 19.0547 1.0622ZM19.0547 11.8556C16.1662 12.1332 13.2096 11.9944 10.2871 12.0638C9.70939 12.0638 9.67541 11.7168 9.67541 11.2656C9.67541 9.87737 9.67541 8.45444 9.67541 7.06623C9.67541 5.67801 9.67541 4.25509 9.67541 2.86688C9.67541 2.3463 9.77736 2.03395 10.3891 2.06865C13.1417 2.10336 15.9283 2.06865 18.6809 2.20747C21.2296 2.3463 22.9288 4.22039 23.0307 6.75388C23.0987 9.53031 21.6374 11.6126 19.0547 11.8556ZM0.5 22.9613H1.68941V1.0622H0.5V22.9613Z" fill="#13131A"/>
</svg>
