<svg width="71" height="8" viewBox="0 0 71 8" fill="none" xmlns="http://www.w3.org/2000/svg">
<path opacity="0.3" d="M0.759 0.507499H2.266V6.2495H5.06V7.4375H0.759V0.507499ZM9.93051 4.7315H11.6905L11.3715 3.8075C11.2688 3.5215 11.1735 3.2355 11.0855 2.9495C10.9975 2.65617 10.9132 2.36283 10.8325 2.0695H10.8105C10.7298 2.34817 10.6418 2.63417 10.5465 2.9275C10.4512 3.2135 10.3522 3.50683 10.2495 3.8075L9.93051 4.7315ZM10.0625 0.507499H11.6245L14.1875 7.4375H12.5925L12.0535 5.8425H9.58951L9.05051 7.4375H7.47751L10.0625 0.507499ZM19.5094 0.3865C19.9568 0.3865 20.3528 0.4305 20.6974 0.5185C21.0421 0.6065 21.3501 0.720166 21.6214 0.859499L21.2804 1.9815C20.9798 1.83483 20.6901 1.72483 20.4114 1.6515C20.1328 1.57083 19.8614 1.5305 19.5974 1.5305C19.2454 1.5305 18.9704 1.60017 18.7724 1.7395C18.5818 1.87883 18.4864 2.06583 18.4864 2.3005C18.4864 2.5425 18.5708 2.72583 18.7394 2.8505C18.9081 2.97517 19.1794 3.09617 19.5534 3.2135L20.2134 3.4225C20.7634 3.60583 21.1924 3.86617 21.5004 4.2035C21.8158 4.54083 21.9734 4.95517 21.9734 5.4465C21.9734 5.73983 21.9184 6.01483 21.8084 6.2715C21.6984 6.52817 21.5334 6.75183 21.3134 6.9425C21.0934 7.13317 20.8184 7.2835 20.4884 7.3935C20.1584 7.5035 19.7734 7.5585 19.3334 7.5585C18.5048 7.5585 17.7458 7.38983 17.0564 7.0525L17.3974 5.9305C17.7128 6.0845 18.0208 6.2055 18.3214 6.2935C18.6221 6.37417 18.9374 6.4145 19.2674 6.4145C19.6561 6.4145 19.9494 6.34483 20.1474 6.2055C20.3454 6.05883 20.4444 5.85717 20.4444 5.6005C20.4444 5.5125 20.4261 5.42817 20.3894 5.3475C20.3601 5.2595 20.3014 5.17883 20.2134 5.1055C20.1254 5.02483 20.0044 4.94783 19.8504 4.8745C19.7038 4.79383 19.5094 4.71683 19.2674 4.6435L18.6844 4.4455C18.4278 4.3575 18.1931 4.25483 17.9804 4.1375C17.7678 4.02017 17.5844 3.8845 17.4304 3.7305C17.2838 3.5765 17.1664 3.39683 17.0784 3.1915C16.9978 2.97883 16.9574 2.73317 16.9574 2.4545C16.9574 2.15383 17.0124 1.87883 17.1224 1.6295C17.2324 1.37283 17.3938 1.15283 17.6064 0.9695C17.8264 0.786166 18.0941 0.643166 18.4094 0.5405C18.7321 0.437833 19.0988 0.3865 19.5094 0.3865ZM30.0929 0.507499V1.6955H28.1349V7.4375H26.6279V1.6955H24.7139V0.507499H30.0929ZM37.884 0.507499H39.391V6.2495H42.185V7.4375H37.884V0.507499ZM48.2034 0.3865C48.6947 0.3865 49.1494 0.467166 49.5674 0.6285C49.9854 0.789833 50.3447 1.0245 50.6454 1.3325C50.946 1.63317 51.1807 2.00717 51.3494 2.4545C51.5254 2.90183 51.6134 3.4115 51.6134 3.9835C51.6134 4.54083 51.5254 5.0395 51.3494 5.4795C51.1734 5.9195 50.9314 6.2935 50.6234 6.6015C50.3154 6.9095 49.9487 7.14783 49.5234 7.3165C49.1054 7.47783 48.6507 7.5585 48.1594 7.5585C47.668 7.5585 47.2134 7.4815 46.7954 7.3275C46.3774 7.16617 46.018 6.93517 45.7174 6.6345C45.4167 6.3265 45.1784 5.9525 45.0024 5.5125C44.8337 5.06517 44.7494 4.5555 44.7494 3.9835C44.7494 3.42617 44.8374 2.9275 45.0134 2.4875C45.1894 2.04017 45.4314 1.6625 45.7394 1.3545C46.0474 1.03917 46.4104 0.800833 46.8284 0.6395C47.2537 0.470833 47.712 0.3865 48.2034 0.3865ZM46.3444 3.9835C46.3444 4.39417 46.392 4.7535 46.4874 5.0615C46.59 5.36217 46.7257 5.61517 46.8944 5.8205C47.063 6.0185 47.2574 6.16883 47.4774 6.2715C47.7047 6.36683 47.9467 6.4145 48.2034 6.4145C48.4527 6.4145 48.6874 6.36683 48.9074 6.2715C49.1347 6.16883 49.329 6.0185 49.4904 5.8205C49.6517 5.61517 49.78 5.36217 49.8754 5.0615C49.9707 4.7535 50.0184 4.39417 50.0184 3.9835C50.0184 3.55817 49.967 3.1915 49.8644 2.8835C49.769 2.5755 49.637 2.3225 49.4684 2.1245C49.2997 1.91917 49.1017 1.76883 48.8744 1.6735C48.6544 1.57817 48.416 1.5305 48.1594 1.5305C47.9027 1.5305 47.6644 1.58183 47.4444 1.6845C47.2244 1.78717 47.0337 1.94117 46.8724 2.1465C46.711 2.3445 46.5827 2.5975 46.4874 2.9055C46.392 3.2135 46.3444 3.57283 46.3444 3.9835ZM58.3355 0.3865C58.7682 0.3865 59.1532 0.423166 59.4905 0.4965C59.8278 0.569833 60.1322 0.668833 60.4035 0.7935L60.0845 1.8165C59.8278 1.69183 59.5638 1.60017 59.2925 1.5415C59.0212 1.48283 58.7535 1.4535 58.4895 1.4535C58.1888 1.4535 57.9028 1.50117 57.6315 1.5965C57.3675 1.69183 57.1365 1.84217 56.9385 2.0475C56.7405 2.25283 56.5828 2.51683 56.4655 2.8395C56.3482 3.15483 56.2895 3.53617 56.2895 3.9835C56.2895 4.78283 56.4655 5.39883 56.8175 5.8315C57.1768 6.25683 57.6865 6.4695 58.3465 6.4695C58.7278 6.4695 59.0138 6.43283 59.2045 6.3595V4.7425H58.0605V3.6205H60.6455V7.1295C60.3595 7.25417 60.0258 7.35683 59.6445 7.4375C59.2632 7.51817 58.8268 7.5585 58.3355 7.5585C57.8222 7.5585 57.3418 7.4815 56.8945 7.3275C56.4545 7.1735 56.0695 6.94617 55.7395 6.6455C55.4168 6.3375 55.1602 5.9635 54.9695 5.5235C54.7862 5.07617 54.6945 4.56283 54.6945 3.9835C54.6945 3.40417 54.7862 2.89083 54.9695 2.4435C55.1602 1.98883 55.4168 1.61117 55.7395 1.3105C56.0622 1.00983 56.4435 0.7825 56.8835 0.6285C57.3308 0.467166 57.8148 0.3865 58.3355 0.3865ZM67.2879 0.3865C67.7793 0.3865 68.2339 0.467166 68.6519 0.6285C69.0699 0.789833 69.4293 1.0245 69.7299 1.3325C70.0306 1.63317 70.2653 2.00717 70.4339 2.4545C70.6099 2.90183 70.6979 3.4115 70.6979 3.9835C70.6979 4.54083 70.6099 5.0395 70.4339 5.4795C70.2579 5.9195 70.0159 6.2935 69.7079 6.6015C69.3999 6.9095 69.0333 7.14783 68.6079 7.3165C68.1899 7.47783 67.7353 7.5585 67.2439 7.5585C66.7526 7.5585 66.2979 7.4815 65.8799 7.3275C65.4619 7.16617 65.1026 6.93517 64.8019 6.6345C64.5013 6.3265 64.2629 5.9525 64.0869 5.5125C63.9183 5.06517 63.8339 4.5555 63.8339 3.9835C63.8339 3.42617 63.9219 2.9275 64.0979 2.4875C64.2739 2.04017 64.5159 1.6625 64.8239 1.3545C65.1319 1.03917 65.4949 0.800833 65.9129 0.6395C66.3383 0.470833 66.7966 0.3865 67.2879 0.3865ZM65.4289 3.9835C65.4289 4.39417 65.4766 4.7535 65.5719 5.0615C65.6746 5.36217 65.8103 5.61517 65.9789 5.8205C66.1476 6.0185 66.3419 6.16883 66.5619 6.2715C66.7893 6.36683 67.0313 6.4145 67.2879 6.4145C67.5373 6.4145 67.7719 6.36683 67.9919 6.2715C68.2193 6.16883 68.4136 6.0185 68.5749 5.8205C68.7363 5.61517 68.8646 5.36217 68.9599 5.0615C69.0553 4.7535 69.1029 4.39417 69.1029 3.9835C69.1029 3.55817 69.0516 3.1915 68.9489 2.8835C68.8536 2.5755 68.7216 2.3225 68.5529 2.1245C68.3843 1.91917 68.1863 1.76883 67.9589 1.6735C67.7389 1.57817 67.5006 1.5305 67.2439 1.5305C66.9873 1.5305 66.7489 1.58183 66.5289 1.6845C66.3089 1.78717 66.1183 1.94117 65.9569 2.1465C65.7956 2.3445 65.6673 2.5975 65.5719 2.9055C65.4766 3.2135 65.4289 3.57283 65.4289 3.9835Z" fill="black"/>
</svg>
