<svg width="34" height="38" viewBox="0 0 34 38" fill="none" xmlns="http://www.w3.org/2000/svg">
<g opacity="0.3" clip-path="url(#clip0_4329_10819)">
<path d="M18.6997 19.4183V24.826C18.6504 25.7536 18.7989 26.681 19.1354 27.5472C19.4718 28.4133 19.9886 29.1984 20.6515 29.8507V28.4249C20.1304 27.4254 19.8726 26.3102 19.9022 25.184V24.1352H21.5771V29.6245C21.5771 30.1521 21.5771 30.4348 21.5771 30.5478C21.5397 31.9174 21.0872 33.2436 20.279 34.3514C19.4708 35.4592 18.345 36.2966 17.05 36.7532C15.7575 36.2966 14.6335 35.4609 13.8257 34.3557C13.0178 33.2506 12.5637 31.9276 12.523 30.5604C14.4119 29.2603 15.3626 27.376 15.3626 24.826V24.1352H17.8182V22.923H11.2322V29.4361C11.7151 29.102 12.1262 28.6749 12.4411 28.18V24.1352H14.116V25.184C14.1614 25.9997 14.0359 26.8158 13.7475 27.5803C13.4592 28.3449 13.0143 29.0411 12.4411 29.6245C12.0945 29.9591 11.7049 30.2463 11.2826 30.4787C11.0279 30.6274 10.7628 30.7575 10.4893 30.8681C8.04632 29.8569 6.85632 27.9287 6.85632 25.2154V20.6368H14.116V22.006H15.3122V19.4183H5.66002V24.826C5.66002 28.136 7.22151 30.3343 10.4893 31.5653C10.7978 31.446 11.1189 31.3203 11.3771 31.1885C11.8871 34.153 13.7256 36.2131 16.9997 37.4692C20.2737 36.2131 22.1185 34.1781 22.6222 31.1885C22.9056 31.3266 23.2015 31.4522 23.5163 31.5716C26.7778 30.3154 28.3393 28.1423 28.3393 24.8323V19.4183H18.6997ZM27.143 25.184C27.143 27.9287 25.9593 29.8569 23.5163 30.8367C23.2403 30.7272 22.973 30.5971 22.7167 30.4473C22.7167 30.0956 22.7671 29.7313 22.7671 29.3545V22.923H19.8834V20.6368H27.143V25.184ZM33.1811 11.2659H33.5589L33.8611 9.73336C33.1909 9.44857 32.4676 9.30941 31.7393 9.32511C29.4978 9.32511 27.9615 10.7571 27.9615 12.6728C27.9615 14.5884 29.3026 15.8131 31.456 15.8131C32.3783 15.8373 33.2765 15.517 33.9745 14.915L33.6974 14.5758C33.1369 14.9857 32.4595 15.2058 31.7645 15.2039C30.2345 15.2039 29.0948 14.155 29.0948 12.3776C29.0948 10.776 30.0078 9.86525 31.5 9.86525C32.6711 9.86525 33.1371 10.217 33.1371 11.09L33.1811 11.2659ZM24.4482 9.89038C25.2289 9.92178 25.2982 9.97831 25.2982 10.4117V14.7077C25.2982 15.1411 25.2289 15.1976 24.4482 15.229V15.6687H27.2437V15.229C26.4567 15.229 26.3937 15.1411 26.3937 14.7077V10.4242C26.3937 9.99087 26.4567 9.93434 27.2437 9.90294V9.46328H24.4482V9.89038ZM22.8237 10.8765C22.8237 10.0474 22.9748 9.90294 23.6737 9.89038V9.45072H21.4197V9.89038C22.1185 9.89038 22.2634 10.0474 22.2634 10.8765V14.0168L18.2337 9.45072H16.4393L16.5085 9.85269C17.2389 9.97203 17.3271 10.0474 17.3271 10.6943V14.2429C17.3271 15.072 17.176 15.2165 16.4771 15.229V15.6687H18.7311V15.229C18.0322 15.229 17.8811 15.072 17.8811 14.2429V10.7069L22.3767 15.7315H22.8237V10.8765ZM12.7497 9.89038C13.5304 9.92178 13.5997 9.97831 13.5997 10.4117V14.7077C13.5997 15.1411 13.5304 15.1976 12.7497 15.229V15.6687H15.5515V15.229C14.7708 15.229 14.7015 15.1411 14.7015 14.7077V10.4242C14.7015 9.99087 14.7708 9.93434 15.5515 9.90294V9.46328H12.7559L12.7497 9.89038ZM12.1767 13.8787H11.8178L11.6856 14.1613C11.3015 14.9715 10.9867 15.1662 10.2815 15.1662H9.12299C8.73262 15.1662 8.68225 14.9966 8.68225 14.4439V10.4242C8.68225 9.98459 8.7578 9.89666 9.65188 9.88409V9.44444H6.77447V9.88409C7.52373 9.9155 7.58039 9.97203 7.58039 10.4054V14.3434C7.58039 15.0657 7.53632 15.1223 6.84373 15.2541V15.6624H11.8304L12.1767 13.8787ZM5.20669 11.2659H5.59076L5.88669 9.73336C5.21647 9.44857 4.49316 9.30941 3.76484 9.32511C1.52336 9.32511 -0.0129395 10.7571 -0.0129395 12.6728C-0.0129395 14.5884 1.32817 15.8131 3.48151 15.8131C4.40388 15.8373 5.30205 15.517 6.00002 14.915L5.72928 14.5758C5.16595 14.985 4.48684 15.2049 3.79002 15.2039C2.26002 15.2039 1.12039 14.155 1.12039 12.3776C1.12039 10.776 2.03336 9.86525 3.52558 9.86525C4.69669 9.86525 5.16262 10.217 5.16262 11.09L5.20669 11.2659ZM25.3926 3.5154C25.3926 1.85099 26.2237 0.971688 27.6215 0.971688C29.0193 0.971688 29.9826 2.03314 29.9826 3.86084C29.9826 5.51896 29.1515 6.37315 27.7537 6.37315C26.356 6.37315 25.3926 5.32426 25.3926 3.5154ZM24.2278 3.80431C24.2278 5.68854 25.4871 6.9447 27.5711 6.9447C29.6552 6.9447 31.1411 5.55037 31.1411 3.59705C31.1411 1.64373 29.8819 0.456665 27.8041 0.456665C25.7263 0.456665 24.2278 1.851 24.2278 3.81059V3.80431ZM22.3011 6.36687C21.5204 6.32918 21.4511 6.27265 21.4511 5.83928V4.0367L23.1889 1.57464C23.51 1.12871 23.6108 1.02193 24.0704 1.00309V0.563438H21.936V1.00309C22.4837 1.00309 22.616 1.10986 22.616 1.31085C22.6004 1.47532 22.5345 1.63103 22.4271 1.75678L21.2182 3.47771L19.9589 1.69398C19.8596 1.58651 19.7978 1.44993 19.7826 1.30457C19.7826 1.10358 19.9211 1.00309 20.4878 0.996811V0.563438H17.7363V1.00309C18.1519 1.00309 18.2589 1.12871 18.5674 1.56836L20.3556 4.08067V5.8016C20.3556 6.23497 20.2926 6.2915 19.5056 6.32918V6.76884H22.3011V6.36687ZM13.8641 4.21256L14.8715 1.94521L15.8663 4.21256H13.8641ZM13.9397 6.37315C13.31 6.37315 13.1589 6.24753 13.1589 5.94606C13.173 5.8153 13.2092 5.68788 13.266 5.56921L13.6626 4.69618H16.0993L16.5148 5.65714C16.5646 5.76171 16.5945 5.87458 16.603 5.99002C16.603 6.24753 16.4393 6.34802 15.8978 6.3543V6.78768H18.4667V6.34802C18.0134 6.34802 17.9252 6.22241 17.7111 5.71995L15.3626 0.50063H14.9219L12.586 5.73251C12.3656 6.22241 12.2837 6.3229 11.8241 6.36059V6.80024H13.9208L13.9397 6.37315ZM5.12484 6.37315C4.42595 6.37315 4.27484 6.20985 4.27484 5.38079V1.80075L6.73669 6.58669H6.96336L9.41262 1.77563V5.82044C9.41262 6.25381 9.35595 6.31034 8.60669 6.34802V6.78768H11.3078V6.34802C10.5648 6.31034 10.5019 6.25381 10.5019 5.82044V1.5244C10.5019 1.0973 10.5648 1.0345 11.3078 1.00309V0.563438H9.41891L7.12706 5.07303L4.87928 0.563438H2.87706V1.00309C3.59484 1.07846 3.72706 1.14755 3.72706 1.94521V5.3745C3.72706 6.20357 3.57595 6.34802 2.87706 6.36687V6.80652H5.13114L5.12484 6.37315Z" fill="#13131A"/>
</g>
<defs>
<clipPath id="clip0_4329_10819">
<rect width="34" height="37" fill="white" transform="translate(0 0.4375)"/>
</clipPath>
</defs>
</svg>
