<svg width="42" height="50" viewBox="0 0 42 50" fill="none" xmlns="http://www.w3.org/2000/svg">
<path opacity="0.3" d="M13.9944 16.0376V25.1723H18.8927C20.3228 25.1723 20.5418 25.6339 20.5675 26.0847L20.5834 26.3637H20.661H21.2603H21.3379L21.3536 26.0847C21.3665 25.8593 21.4061 25.1723 23.1625 25.1723H28.0908V16.0376L23.5362 16.0397C23.2115 16.0397 22.1137 16.0622 21.6224 16.3512C21.337 16.518 21.1214 16.7563 20.9617 17.0429C20.8009 16.7527 20.5803 16.5164 20.2987 16.3512C19.8375 16.0802 18.985 16.0397 18.5177 16.0397L13.9944 16.0376ZM21.9221 16.8622C22.1527 16.7265 22.8169 16.6319 23.5363 16.6319L27.4993 16.6302V24.5803H23.1634C22.2056 24.5803 21.6161 24.7802 21.2608 25.0643L21.2591 18.3044C21.2591 18.2806 21.2561 18.2596 21.2555 18.2365C21.2664 17.766 21.3946 17.1706 21.9221 16.8622ZM20.0007 16.8622C20.5356 17.1769 20.6594 17.7878 20.6662 18.2618C20.6662 18.2769 20.6622 18.2891 20.6622 18.3045L20.661 25.0234C20.1103 24.5809 19.2538 24.5803 18.8927 24.5803H14.586V16.6302L18.5192 16.6319C19.1909 16.6319 19.7586 16.7205 20.0007 16.8622ZM28.6792 16.9671H29.2695V26.5859H22.5047C22.2296 27.0634 21.7546 27.3122 21.034 27.3122C20.3133 27.3122 19.8382 27.0638 19.5649 26.5859H12.8112V25.9426L12.2588 26.1811C12.2151 26.4337 11.9957 26.6263 11.7321 26.6263C11.4352 26.6263 11.1941 26.3845 11.1941 26.0864C11.1941 25.7907 11.4352 25.5495 11.7321 25.5495C11.8417 25.5495 11.9426 25.5817 12.0266 25.6381L12.8113 25.3005V24.5958L12.2739 24.7604C12.2078 24.9833 12.0052 25.1469 11.761 25.1469C11.4645 25.1469 11.2232 24.9065 11.2232 24.6097C11.2232 24.3121 11.4644 24.0721 11.761 24.0721C11.8899 24.0721 12.0079 24.1196 12.1009 24.1962L12.8102 23.9791V23.2522L12.2621 23.3458C12.1789 23.5366 11.9896 23.6687 11.769 23.6687C11.4735 23.6687 11.2304 23.4292 11.2304 23.1311C11.2304 22.8343 11.4735 22.5935 11.769 22.5935C11.9235 22.5935 12.0618 22.6602 12.1602 22.7649L12.8098 22.6527V21.9111L12.236 21.9319C12.1425 22.0866 11.9726 22.1905 11.7791 22.1905C11.4833 22.1905 11.2406 21.95 11.2406 21.6535C11.2406 21.3567 11.4833 21.1153 11.7791 21.1153C11.9593 21.1153 12.1189 21.205 12.2167 21.3417L12.8102 21.3204V20.5162L12.2038 20.4899C12.1066 20.6241 11.9486 20.7127 11.7695 20.7127C11.474 20.7127 11.231 20.4713 11.231 20.1751C11.231 19.8786 11.474 19.6374 11.7695 19.6374C11.9649 19.6374 12.1356 19.7433 12.2296 19.8994L12.8102 19.9257V19.1855L12.1485 19.0667C12.0505 19.1693 11.9118 19.2346 11.7599 19.2346C11.4634 19.2346 11.222 18.9937 11.222 18.6975C11.222 18.4002 11.4634 18.1593 11.7599 18.1593C11.9817 18.1593 12.172 18.2937 12.2531 18.4859L12.8102 18.5857V17.8596L12.0709 17.6318C11.9777 17.709 11.8602 17.7559 11.7309 17.7559C11.434 17.7559 11.1926 17.5152 11.1926 17.2188C11.1926 16.9221 11.434 16.6806 11.7309 16.6806C11.975 16.6806 12.1789 16.8448 12.2439 17.0679L12.8107 17.2418V16.9669H13.401V25.9961H19.9265L20.0024 26.181C20.1167 26.4633 20.3213 26.7236 21.0334 26.7236C21.7478 26.7236 21.9511 26.4632 22.0657 26.181L22.1401 25.9961H28.6792V16.9671ZM16.5908 14.9036C15.2256 14.9036 14.1189 14.6912 14.1189 14.4292C14.1189 14.1672 15.2256 13.9548 16.5908 13.9548C17.9561 13.9548 19.0628 14.1672 19.0628 14.4292C19.0628 14.6912 17.9561 14.9036 16.5908 14.9036ZM13.9383 13.7066L13.0653 11.0403L13.1856 10.9927L14.6722 11.9964L14.6846 12.0978L14.3453 12.2493C14.278 12.2843 14.2763 12.3374 14.3116 12.3699L15.1488 13.1272L15.2327 13.1192L15.8691 12.1829C15.9122 12.1219 15.8956 12.0622 15.8204 12.0494L15.3936 11.9789V11.8719L16.4985 10.3098H16.68L17.7857 11.8719V11.9789L17.3589 12.0494C17.2811 12.0617 17.2661 12.1219 17.3102 12.1829L17.9451 13.1192L18.0303 13.1272L18.9279 12.3699C18.9615 12.3379 18.9615 12.2843 18.8931 12.2493L18.5544 12.0978L18.5673 11.9964L19.9932 10.9927L20.114 11.0403L19.2426 13.7066C18.7987 13.5078 17.7817 13.3673 16.5898 13.3623C15.3985 13.3677 14.3808 13.5083 13.9383 13.7066ZM23.4969 32.3158C23.4969 32.5779 22.3897 32.7902 21.0238 32.7902C19.658 32.7902 18.5507 32.5779 18.5507 32.3158C18.5507 32.0537 19.658 31.8413 21.0238 31.8413C22.3897 31.8413 23.4969 32.0537 23.4969 32.3158ZM24.4266 28.879L24.5479 28.9266L23.6745 31.5936C23.2327 31.3945 22.2147 31.2545 21.0234 31.2491C19.8327 31.2544 18.815 31.3945 18.3715 31.5936L17.498 28.9266L17.6183 28.879L19.106 29.8821L19.1177 29.9839L18.779 30.1365C18.7119 30.1692 18.7102 30.224 18.7454 30.2564L19.5825 31.0126L19.6675 31.0055L20.3022 30.0685C20.3465 30.0085 20.3316 29.9483 20.2537 29.9353L19.8277 29.8657V29.7568L20.932 28.1959H21.1141L22.2182 29.7568V29.8657L21.7921 29.9353C21.7166 29.9483 21.7002 30.0085 21.7441 30.0685L22.3785 31.0055L22.4638 31.0126L23.361 30.2564C23.3945 30.224 23.3945 30.1692 23.3278 30.1365L22.9897 29.9839L23.0007 29.8821L24.4266 28.879ZM25.4467 13.9538C26.8115 13.9538 27.9178 14.1666 27.9178 14.4292C27.9178 14.6918 26.8115 14.9046 25.4467 14.9046C24.0819 14.9046 22.9756 14.6918 22.9756 14.4292C22.9756 14.1666 24.0819 13.9538 25.4467 13.9538ZM22.7939 13.7066L21.9208 11.0403L22.0416 10.9927L23.5278 11.9964L23.5408 12.0978L23.2017 12.2405C23.1339 12.2736 23.1327 12.3273 23.1678 12.3598L24.0055 13.1272L24.0896 13.1192L24.7249 12.1829C24.7681 12.1219 24.7524 12.0622 24.6778 12.0494L24.2494 11.9789V11.8719L25.356 10.3098H25.5362L26.6419 11.8719V11.9789L26.2154 12.0494C26.1389 12.0617 26.1226 12.1219 26.1673 12.1829L26.8016 13.1192L26.8859 13.1272L27.7834 12.3699C27.817 12.3379 27.817 12.2843 27.7485 12.2493L27.4093 12.0978L27.4237 11.9964L28.8495 10.9927L28.9698 11.0403L28.0978 13.7066C27.6542 13.5078 26.6377 13.3673 25.4456 13.3623C24.2547 13.3677 23.2357 13.5083 22.7939 13.7066ZM16.1857 18.2432C16.1857 18.0818 16.1116 17.9417 16.0233 17.8579C15.8977 17.7353 15.7063 17.69 15.4741 17.69H14.9241V17.7643C15.0461 17.7756 15.0612 17.7885 15.0612 17.9905V18.6129C15.0612 18.8161 15.0461 18.8295 14.909 18.8407V18.9138H15.3951C15.83 18.9138 16.1857 18.7126 16.1857 18.2432ZM15.3818 17.8922C15.3818 17.8451 15.3845 17.8014 15.393 17.7975C15.4075 17.7907 15.4304 17.7846 15.4747 17.7846C15.6341 17.7846 15.8407 17.8985 15.8407 18.302C15.8403 18.6358 15.6751 18.8139 15.5133 18.8139C15.4237 18.8139 15.3818 18.7815 15.3818 18.6151V17.8922ZM16.9755 18.9422C17.3378 18.9422 17.6122 18.6901 17.6122 18.287C17.6122 17.914 17.3462 17.6607 17.0038 17.6607C16.5525 17.6607 16.3498 18.0134 16.3498 18.3185C16.3498 18.6649 16.596 18.9422 16.9755 18.9422ZM16.9643 17.7594C17.1267 17.7594 17.2622 17.9694 17.2622 18.3469C17.2622 18.6879 17.1736 18.8444 17.0119 18.8444C16.8264 18.8444 16.6984 18.5954 16.6984 18.2544C16.6984 17.9257 16.8195 17.7594 16.9643 17.7594ZM18.1839 18.9143H17.7186V18.8401C17.81 18.8336 17.8463 18.8144 17.8581 18.7445C17.8665 18.6862 17.8772 18.5867 17.887 18.4152L17.9077 18.0348C17.92 17.7975 17.906 17.7767 17.7561 17.7643V17.69L18.1995 17.6899L18.53 18.4353L18.817 17.6899H19.2739V17.7642C19.1305 17.7771 19.1233 17.7845 19.1301 17.9823L19.1478 18.6129C19.1546 18.8217 19.1574 18.8273 19.2931 18.8401V18.9143H18.7035V18.8401C18.8453 18.8273 18.8501 18.8218 18.848 18.6129L18.8435 17.9497H18.8353L18.4719 18.8934H18.3699L18.0258 18.0164H18.022L18.0088 18.4343C18.0035 18.5953 18.006 18.6862 18.0137 18.7445C18.0204 18.8138 18.0617 18.8313 18.1839 18.8401V18.9143ZM20.0302 18.9137H19.4207V18.8406C19.5506 18.8294 19.5666 18.8165 19.5666 18.6128V17.9904C19.5666 17.7884 19.5499 17.7755 19.4207 17.7642V17.6899H20.0302V17.7642C19.9015 17.7749 19.8853 17.7884 19.8853 17.9904V18.6123C19.8853 18.8161 19.9021 18.8289 20.0302 18.8401V18.9137ZM16.1913 21.0997V21.1729H15.7238V21.0997C15.8073 21.0958 15.8549 21.0699 15.8645 21.0039C15.8712 20.9451 15.8788 20.8421 15.8788 20.6432V20.297C15.8788 20.1586 15.8752 20.1334 15.8381 20.0814C15.81 20.0415 15.7636 20.0287 15.6951 20.0227V19.9491H16.1118L16.7372 20.7309H16.741V20.4791C16.741 20.2813 16.7349 20.1766 16.7281 20.1194C16.7169 20.0539 16.6668 20.0293 16.5429 20.0233V19.9496H17.0209V20.0233C16.928 20.0271 16.8787 20.0533 16.8697 20.1194C16.8631 20.1766 16.8552 20.2813 16.8552 20.4791V21.1868H16.6929L15.9975 20.2975H15.992V20.6438C15.992 20.8426 15.9998 20.9457 16.0064 21.0045C16.017 21.0698 16.0679 21.0947 16.1913 21.0997ZM17.5483 20.1207C17.5826 20.226 17.7314 20.5968 17.8014 20.7811C17.8592 20.6219 17.9794 20.2618 18.0104 20.174C18.05 20.0585 18.0376 20.0384 17.9532 20.0288L17.8953 20.0228V19.9492H18.3518V20.0228C18.2438 20.0362 18.2179 20.0458 18.1439 20.2169C18.1335 20.2423 17.9034 20.8024 17.7628 21.1863H17.6172C17.4873 20.847 17.3102 20.3823 17.2425 20.2046C17.1806 20.0438 17.143 20.0339 17.0523 20.0227V19.9491H17.6596V20.0227L17.5984 20.03C17.5278 20.0384 17.5278 20.0554 17.5483 20.1207ZM18.9726 20.9181C18.9726 20.8076 18.9005 20.7455 18.7856 20.6923L18.7566 20.6794C18.6023 20.6072 18.4275 20.5096 18.4275 20.308C18.4275 20.0952 18.5819 19.9221 18.8774 19.9221C18.9357 19.9221 18.9954 19.9296 19.051 19.9446C19.0935 19.9558 19.125 19.9632 19.1491 19.9709C19.1563 20.0456 19.1685 20.1366 19.1899 20.2652L19.107 20.2785C19.066 20.1541 19.0007 20.0196 18.8511 20.0196C18.7543 20.0196 18.6865 20.0937 18.6865 20.1837C18.6865 20.2785 18.7609 20.3322 18.8819 20.3872L18.9221 20.4063C19.0957 20.4851 19.2453 20.5802 19.2453 20.8009C19.2453 21.0334 19.0588 21.2026 18.766 21.2026C18.6915 21.2026 18.6149 21.1867 18.5632 21.1695C18.5076 21.1498 18.4676 21.1358 18.4458 21.1246C18.4306 21.0386 18.4066 20.9365 18.3826 20.8099L18.4655 20.7859C18.5055 20.8954 18.617 21.104 18.8008 21.104C18.8987 21.104 18.9732 21.0403 18.9726 20.9181ZM15.5524 22.2085H16.1615V22.2829C16.032 22.2942 16.017 22.307 16.017 22.5099V23.1322C16.017 23.3355 16.0321 23.349 16.1615 23.3596V23.433H15.5524V23.3596C15.6822 23.349 15.6975 23.335 15.6975 23.1322V22.5099C15.6975 22.307 15.6816 22.2942 15.5524 22.2829V22.2085ZM17.205 23.0945L17.2857 23.1079C17.2746 23.1785 17.236 23.3751 17.219 23.4329H16.2857V23.3595C16.428 23.3489 16.4428 23.3349 16.4428 23.1321V22.5105C16.4428 22.3083 16.428 22.2949 16.3009 22.2829V22.2097H16.914V22.2829C16.7779 22.2949 16.7633 22.3084 16.7633 22.5105V23.1566C16.7633 23.2547 16.7666 23.3012 16.8004 23.3179C16.8311 23.3335 16.8737 23.3354 16.932 23.3354C16.9914 23.3354 17.0736 23.3293 17.1122 23.2799C17.1431 23.2441 17.1755 23.1936 17.205 23.0945ZM18.2566 23.0945L18.3372 23.1079C18.3255 23.1785 18.2874 23.3751 18.2688 23.4329H17.3362V23.3595C17.4779 23.3489 17.4942 23.3349 17.4942 23.1321V22.5105C17.4942 22.3083 17.4779 22.2949 17.3512 22.2829V22.2097H17.9639V22.2829C17.8287 22.2949 17.8132 22.3084 17.8132 22.5105V23.1566C17.8132 23.2547 17.8165 23.3012 17.8506 23.3179C17.8809 23.3335 17.9241 23.3354 17.9824 23.3354C18.0423 23.3354 18.1252 23.3293 18.1631 23.2799C18.1934 23.2441 18.2252 23.1936 18.2566 23.0945ZM18.9921 22.2084H19.4474V22.2817C19.3404 22.2955 19.3138 22.3042 19.2395 22.4768C19.2283 22.5014 18.999 23.0614 18.8574 23.4457H18.7129C18.5834 23.1063 18.4065 22.6419 18.3382 22.4645C18.2761 22.3038 18.2394 22.2936 18.1485 22.2818V22.2085H18.7569V22.2818L18.6909 22.2892C18.6225 22.2977 18.6225 22.315 18.6421 22.3806C18.6774 22.4858 18.826 22.8572 18.8947 23.0406C18.9541 22.8812 19.0739 22.5217 19.1042 22.433C19.1439 22.3176 19.1315 22.2977 19.0476 22.2881L18.9911 22.2818L18.9921 22.2817V22.2084ZM22.4701 18.9142H22.0055V18.84C22.0951 18.8335 22.132 18.8143 22.1432 18.7444C22.1531 18.6861 22.1629 18.5866 22.1727 18.4151L22.194 18.0347C22.2066 17.7974 22.1912 17.7766 22.0428 17.7642V17.6899H22.4855L22.8158 18.4353L23.1028 17.6899H23.5604V17.7642C23.4182 17.7771 23.4102 17.7845 23.415 17.9823L23.4336 18.6129C23.4397 18.8217 23.4435 18.8273 23.5802 18.8401V18.9143H22.9897V18.8401C23.1313 18.8273 23.1373 18.8218 23.1351 18.6129L23.1295 17.9497H23.1211L22.759 18.8934H22.6561L22.3127 18.0164H22.3073L22.2947 18.4343C22.2898 18.5953 22.2921 18.6862 22.2985 18.7445C22.3051 18.8138 22.3467 18.8313 22.4702 18.8401L22.4701 18.9142ZM24.3176 18.9137H23.707V18.8406C23.8368 18.8294 23.8529 18.8165 23.8529 18.6128V17.9904C23.8529 17.7884 23.8368 17.7755 23.707 17.7642V17.6899H24.3176V17.7642C24.187 17.7749 24.1717 17.7884 24.1717 17.9904V18.6123C24.1717 18.8161 24.1881 18.8289 24.3176 18.8401V18.9137ZM24.4129 17.7632V17.6894H24.8295L25.4565 18.4708H25.4603V18.2186C25.4603 18.0209 25.4522 17.9172 25.4453 17.859C25.436 17.793 25.3847 17.7689 25.2593 17.7632V17.6894H25.7411V17.7632C25.6479 17.7665 25.5979 17.793 25.5878 17.859C25.582 17.9172 25.5736 18.0209 25.5736 18.2186V18.9272H25.4106L24.7146 18.0378H24.7096V18.3837C24.7096 18.5825 24.7184 18.6857 24.7263 18.7434C24.7361 18.81 24.7857 18.8346 24.911 18.8415V18.9137H24.4418V18.8415C24.5255 18.8363 24.5737 18.81 24.5823 18.7434C24.5916 18.6857 24.5981 18.5825 24.5981 18.3837V18.0378C24.5981 17.8989 24.5938 17.8749 24.5561 17.822C24.5282 17.7823 24.4819 17.7689 24.4129 17.7632ZM25.7103 18.9143H26.1488V18.842L26.0937 18.8352C26.0065 18.8261 26.0065 18.807 26.0317 18.7261L26.0881 18.5462H26.398L26.4647 18.7378C26.4899 18.8053 26.4866 18.8245 26.4161 18.8335L26.3598 18.8425V18.9148H26.9514V18.8425C26.8595 18.8294 26.8245 18.8207 26.7652 18.6566C26.6933 18.4654 26.6125 18.242 26.5305 18.0186L26.4036 17.6628L26.2734 17.6888L25.8972 18.6626C25.8338 18.8207 25.8054 18.8284 25.7103 18.8425V18.9143ZM26.2372 18.072H26.2438L26.3619 18.4318H26.1213L26.2372 18.072ZM23.5921 20.0484L23.5468 20.0483V20.8729C23.5468 21.0761 23.5614 21.0895 23.7194 21.1001V21.1733H23.0608V21.1001C23.2114 21.0895 23.2259 21.0761 23.2259 20.8729V20.0483H23.1928C23.0692 20.0483 23.0173 20.0702 22.9879 20.1044C22.9655 20.1323 22.9426 20.1815 22.9179 20.2867H22.8386C22.8467 20.1284 22.8582 19.998 22.8615 19.9025H22.9194C22.9479 19.9457 22.9665 19.9495 23.0168 19.9495H23.768C23.8175 19.9495 23.8254 19.938 23.8561 19.9025H23.9146C23.9168 19.9817 23.9261 20.1418 23.9354 20.2813L23.8528 20.2867C23.8239 20.1739 23.8036 20.1246 23.7746 20.0926C23.7429 20.059 23.6817 20.0484 23.5921 20.0484ZM24.2121 20.8724V20.2499C24.2121 20.0478 24.1968 20.0345 24.0672 20.0227V19.9491H24.6763V20.0227C24.5468 20.0344 24.5314 20.0478 24.5314 20.2499V20.8724C24.5314 21.0755 24.5468 21.089 24.6763 21.0997V21.1729H24.0672V21.0997C24.1968 21.089 24.2122 21.0755 24.2121 20.8724ZM26.097 20.5464C26.097 20.1739 25.8322 19.9213 25.4861 19.9213C25.0379 19.9213 24.8338 20.2729 24.8338 20.5775C24.8338 20.9237 25.0805 21.2016 25.4615 21.2016C25.8218 21.2021 26.097 20.9501 26.097 20.5464ZM25.1836 20.5143C25.1836 20.1856 25.3044 20.0186 25.4499 20.0186C25.6109 20.0186 25.747 20.2287 25.747 20.6062C25.747 20.9472 25.6588 21.1039 25.4961 21.1039C25.3113 21.104 25.1836 20.8554 25.1836 20.5143ZM24.1211 23.359V23.4323H23.5309V23.359C23.6728 23.3462 23.6783 23.3399 23.6761 23.131L23.6708 22.4688H23.6624L23.2994 23.4121H23.1993L22.8538 22.5351H22.8488L22.8362 22.9524C22.8309 23.1137 22.833 23.2043 22.8408 23.263C22.8483 23.3331 22.8889 23.35 23.0117 23.359V23.4323H22.5465V23.359C22.6368 23.3511 22.6734 23.3331 22.685 23.263C22.6944 23.2043 22.7041 23.1053 22.7139 22.9338L22.7359 22.5537C22.7491 22.3166 22.7342 22.2961 22.5838 22.283V22.2086H23.0266L23.357 22.9546L23.6453 22.2086H24.1029V22.283C23.9584 22.2961 23.9518 22.3027 23.9574 22.501L23.9761 23.131C23.9813 23.3398 23.9846 23.3467 24.1211 23.359ZM25.1756 23.0838L25.2593 23.0967C25.2494 23.1892 25.2097 23.3821 25.193 23.4323H24.2362V23.3601C24.3795 23.3472 24.3943 23.3349 24.3943 23.1321V22.5105C24.3943 22.3064 24.3795 22.293 24.2538 22.2823V22.209H25.145C25.1482 22.241 25.1561 22.3789 25.1678 22.52L25.0837 22.5255C25.0642 22.4335 25.0445 22.3811 25.0129 22.3502C24.982 22.3185 24.9208 22.307 24.8201 22.307H24.7895C24.7173 22.307 24.7137 22.307 24.7137 22.3726V22.736H24.808C24.9693 22.736 24.9758 22.7253 24.9941 22.5826H25.0761V23.0262H24.9941C24.9759 22.8615 24.9693 22.8503 24.808 22.8503H24.7137V23.1566C24.7137 23.2536 24.7173 23.3013 24.7512 23.3185C24.781 23.3335 24.8244 23.3349 24.883 23.3349C24.9578 23.3349 25.0415 23.3231 25.0827 23.2788C25.1131 23.2441 25.1471 23.1758 25.1756 23.0838ZM26.3228 23.1742C26.2504 22.9831 26.1695 22.7602 26.0886 22.5362L25.9617 22.1806L25.8321 22.2063L25.4554 23.1803C25.3929 23.3383 25.3651 23.3462 25.2683 23.3596V23.4324H25.7069V23.3596L25.6518 23.3534C25.5647 23.3443 25.5647 23.3254 25.5912 23.2441L25.6477 23.0642H25.9562L26.0228 23.2548C26.0475 23.3232 26.0447 23.3426 25.9743 23.3517L25.9179 23.3601V23.433H26.5095V23.3601C26.416 23.3478 26.3826 23.3389 26.3228 23.1742ZM25.6785 22.9513L25.7955 22.5917H25.802L25.9201 22.9513H25.6785ZM19.3265 38.5813C19.3265 38.8531 19.1059 39.0738 18.8333 39.0738C18.5622 39.0738 18.3434 38.8531 18.3434 38.5813C18.3434 38.3099 18.5622 38.088 18.8333 38.088C19.1059 38.088 19.3265 38.3105 19.3265 38.5813ZM24.3187 39.4011C24.3187 39.673 24.0984 39.8934 23.8269 39.8934C23.5549 39.8934 23.3342 39.673 23.3342 39.4011C23.3342 39.1293 23.5549 38.9085 23.8269 38.9085C24.0984 38.9085 24.3187 39.1293 24.3187 39.4011ZM21.4966 3.81311C21.4966 4.08508 21.2763 4.30548 21.0044 4.30548C20.7326 4.30548 20.5122 4.08508 20.5122 3.81311C20.5122 3.54114 20.7326 3.32074 21.0044 3.32074C21.2763 3.32074 21.4966 3.54114 21.4966 3.81311ZM33.212 8.40185C33.212 8.67362 32.9917 8.89401 32.7202 8.89401C32.4482 8.89401 32.2279 8.67362 32.2279 8.40185C32.2279 8.12967 32.4482 7.90928 32.7202 7.90928C32.9917 7.90928 33.212 8.12967 33.212 8.40185ZM6.36006 29.4632C6.80179 29.152 7.15509 28.9387 7.48191 28.9387C7.96111 28.9399 8.30882 29.2509 8.52354 29.5602C8.71258 29.8328 8.8084 30.1233 8.8072 30.4253C8.8072 30.7698 8.6918 31.0494 8.07581 31.4756L6.29881 32.7433L5.97138 32.2713C5.97138 32.2713 7.79215 30.9744 7.82043 30.9543C8.13576 30.7371 8.27015 30.5773 8.27015 30.3285C8.27015 30.171 8.2131 30.0003 8.09879 29.8356C7.92144 29.5798 7.69174 29.4977 7.49041 29.4966C7.30826 29.4966 7.11252 29.625 6.76082 29.8695L5.09072 31.0033L4.7685 30.5406L6.36006 29.4632ZM4.47724 27.7802L6.92258 26.8115L7.10463 27.3109L3.76104 28.5951L3.5741 28.0832L5.51916 25.716L3.02486 26.5879L2.84362 26.089L6.22477 24.9025L6.41271 25.4153L4.47724 27.7802ZM5.96429 23.438L2.42327 23.9641L2.33904 23.3968L5.88006 22.8706L5.96429 23.438ZM5.75367 20.5567L2.12632 21.6394L2.13012 21.0435L5.07134 20.2193L2.23273 19.1259L2.24662 18.5323L5.77775 19.9666L5.75367 20.5567ZM6.59126 12.1592C6.54091 12.1737 6.48166 12.2047 6.42211 12.2459C6.43639 12.1822 6.45987 12.1207 6.46027 12.0544C6.46137 11.9536 6.44688 11.8534 6.41601 11.7632C6.34817 11.5532 6.19809 11.3827 5.97218 11.2575C5.80293 11.1639 5.63397 11.1161 5.46301 11.1161C4.95654 11.1175 4.72254 11.4067 4.39881 11.9904L3.97886 12.7438L7.13191 14.4543L7.40488 13.963L6.09348 13.248L6.17032 13.1063C6.39213 12.707 6.46587 12.6462 7.03029 12.6941L8.05083 12.7853L8.34259 12.2555L7.16558 12.1546C6.92878 12.1321 6.74304 12.1155 6.59126 12.1592ZM5.74817 12.89L5.67573 13.0229L4.66698 12.4811L4.82565 12.2011C5.03417 11.8199 5.18485 11.6746 5.40646 11.6757C5.48819 11.6757 5.5919 11.6971 5.69652 11.7537C5.8306 11.8286 5.93352 11.9525 5.97148 12.0851C5.98607 12.1368 5.99177 12.1888 5.99177 12.2398C5.99087 12.4527 5.87227 12.666 5.74817 12.89ZM9.83533 5.71101L12.0063 8.55657L11.5507 8.90451L9.37972 6.05895L9.83533 5.71101ZM12.9849 4.36015L14.4113 7.10056L13.9037 7.36613L12.4771 4.62453L11.5702 5.0963L11.3444 4.66151L13.659 3.45638L13.8839 3.89147L12.9849 4.36015ZM17.7224 2.19947L17.2371 4.59314L17.6301 5.9541L17.0837 6.11093L16.6997 4.76186L15.0005 2.9887L15.5888 2.81728L16.8116 4.09138L17.1195 2.36759L17.7224 2.19947ZM29.8556 4.17774L31.5637 5.18526L31.3165 5.60736L30.095 4.8874L29.5931 5.7398L30.7412 6.41748L30.4995 6.83069L29.3495 6.15311L28.5281 7.55045L28.0382 7.26088L29.8556 4.17774ZM36.8867 15.6714L35.3057 15.3118L35.1144 14.725L37.2333 15.2361L38.5358 13.6765L38.7384 14.2943L37.7692 15.4042L39.2091 15.7286L39.4008 16.3092L37.4302 15.8333L36.0301 17.512L35.8306 16.9034L36.8867 15.6714ZM36.2087 18.7541L39.7767 18.4628L39.9376 20.4422L39.4497 20.4813L39.3349 19.0688L38.3497 19.1495L38.456 20.4791L37.9793 20.5171L37.871 19.1875L36.2568 19.3202L36.2087 18.7541ZM37.7876 21.9461C37.3743 21.9461 36.9941 22.0573 36.6931 22.2758C36.153 22.6671 36.0558 23.2291 36.0558 23.5584C36.0558 24.7688 37.1908 25.2534 38.046 25.2534C38.4566 25.2534 38.831 25.1419 39.1261 24.9272C39.7298 24.491 39.7626 23.8353 39.7626 23.6227C39.7619 22.5665 38.7925 21.9461 37.7876 21.9461ZM38.8577 24.4471C38.6493 24.5978 38.3772 24.6727 38.0698 24.6727C37.3724 24.6727 36.5586 24.2932 36.5586 23.5901C36.5586 23.3348 36.6474 22.9936 36.9609 22.7653C37.1736 22.6105 37.4498 22.5278 37.7591 22.5278C38.1145 22.5278 38.755 22.6285 39.0899 23.0923C39.2065 23.2506 39.266 23.4367 39.264 23.6338C39.2627 23.9084 39.1518 24.2349 38.8577 24.4471ZM36.3716 13.1372C36.8145 12.8563 37.3065 12.3351 37.3065 11.6287C37.3065 11.3359 37.224 11.0471 37.0545 10.7791C36.7412 10.2847 36.2503 10.0293 35.7101 10.0293C35.3493 10.0293 34.9643 10.1436 34.5937 10.3782C33.9052 10.8153 33.6543 11.4396 33.6543 11.896C33.6543 12.1914 33.7363 12.4807 33.9043 12.7469C34.2849 13.3505 34.8574 13.4965 35.2445 13.4949C35.614 13.4938 36.0049 13.3713 36.3716 13.1372ZM34.3423 12.4948C34.2393 12.3345 34.1901 12.1598 34.1884 11.9857C34.1873 11.5795 34.4444 11.1646 34.9128 10.8666C35.2234 10.6689 35.5285 10.5715 35.8019 10.5737C36.1468 10.5737 36.4276 10.726 36.6151 11.0206C36.7253 11.1964 36.7761 11.3818 36.7761 11.5668C36.7761 11.9617 36.5259 12.3497 36.0721 12.6365C35.7548 12.8393 35.4344 12.9455 35.1525 12.9455C34.8321 12.9455 34.541 12.8099 34.3423 12.4948ZM25.948 2.65535C25.2007 2.65535 24.5527 3.15772 24.2897 4.0501C24.2317 4.2479 24.1958 4.44391 24.1958 4.63412C24.1958 4.99195 24.2561 5.27552 24.4013 5.54269C24.7328 6.14921 25.3384 6.35561 25.7988 6.35561C26.059 6.35561 26.3096 6.29574 26.5396 6.1699C27.1434 5.83985 27.5417 5.07331 27.5417 4.33956C27.5417 4.02011 27.4807 3.72075 27.3394 3.46377C27.0486 2.93652 26.5102 2.65535 25.948 2.65535ZM25.7634 5.84835C25.5053 5.84835 25.1295 5.72171 24.9207 5.33919C24.8189 5.15428 24.7744 4.92978 24.7744 4.69729C24.7744 4.05649 25.2007 3.15712 25.9818 3.15712C26.4193 3.15712 26.9688 3.48246 26.9688 4.29258C26.9688 4.80784 26.6059 5.84835 25.7634 5.84835ZM6.06461 17.7397L2.60222 16.7905L3.19352 14.8015L3.66383 14.934L3.22769 16.3677L4.18259 16.6298L4.55168 15.328L5.01249 15.4592L4.6452 16.7564L5.72519 17.0526L6.12605 15.6378L6.60575 15.7741L6.06461 17.7397ZM10.0847 9.88605C10.0847 10.1896 9.96542 10.4595 9.72762 10.7267C9.27191 11.2375 8.65722 11.2941 8.65722 11.2941L8.53573 10.8141C8.89802 10.7298 9.17229 10.5915 9.33725 10.405C9.46904 10.259 9.53339 10.0953 9.53339 9.95162C9.53339 9.81648 9.47564 9.68984 9.36613 9.59198C9.2758 9.51192 9.16789 9.48403 9.0486 9.48613C8.81899 9.48613 8.54302 9.61767 8.31691 9.71173C7.88138 9.89184 7.42256 10.0365 7.01211 9.66935C6.80378 9.48284 6.69258 9.24825 6.69258 8.98787C6.69258 8.7121 6.80109 8.41924 7.03349 8.15946C7.53047 7.60212 8.03904 7.63961 8.03904 7.63961L8.12507 8.11298C8.12507 8.11298 7.7339 8.12468 7.42776 8.46901C7.29377 8.61904 7.22593 8.77497 7.22593 8.9155C7.22593 9.03255 7.27189 9.1332 7.36261 9.21436C7.61051 9.43566 8.03415 9.19027 8.29863 9.08392C8.50206 8.99936 8.79161 8.88182 9.08337 8.88182C9.29749 8.88182 9.5221 8.94329 9.72593 9.126C9.96482 9.3383 10.0847 9.60538 10.0847 9.88605ZM35.2595 26.5775L36.6118 27.1906L36.5452 27.3421C36.3608 27.7583 36.2901 27.8264 35.7259 27.8294H34.7019L34.457 28.3818L35.6373 28.3785C35.8775 28.3785 36.0633 28.3785 36.2087 28.3223C36.2568 28.3043 36.3105 28.2753 36.3596 28.2342C36.3569 28.2648 36.3475 28.2945 36.3464 28.3255C36.3443 28.4573 36.3693 28.5875 36.4187 28.7014C36.5807 29.0786 37.0225 29.2647 37.344 29.2635C37.9135 29.2635 38.131 28.9223 38.4085 28.2955C38.4189 28.272 38.7401 27.528 38.7401 27.528L35.4861 26.0622L35.2595 26.5775ZM36.988 27.521L37.0476 27.3844L38.081 27.847L37.9655 28.1237C37.7726 28.5601 37.6467 28.7003 37.3712 28.7003C37.2096 28.7003 36.9376 28.6083 36.8331 28.3408C36.8069 28.2731 36.7962 28.2036 36.7972 28.1352C36.7991 27.9388 36.8918 27.7353 36.988 27.521ZM33.3751 29.9647C33.0043 30.4296 32.7222 30.8447 32.7222 31.3812C32.7222 31.8376 32.9288 32.356 33.4532 32.7728C33.7998 33.0516 34.1917 33.2009 34.596 33.2009C35.0944 33.2009 35.494 33.0516 36.1126 32.274L36.6777 31.5623L33.8822 29.3292L33.3751 29.9647ZM35.9484 31.7074L35.7936 31.9031C35.4137 32.3784 35.1557 32.6595 34.6507 32.6595C34.3651 32.6595 34.0988 32.5501 33.8216 32.3276C33.5395 32.1038 33.2408 31.7521 33.2408 31.3051C33.2408 30.994 33.4093 30.697 33.6695 30.3722L33.9065 30.0735L35.9484 31.7074ZM41.5286 20.9137C41.5286 9.62257 32.3325 0.4375 21.028 0.4375C9.72483 0.4375 0.528564 9.62207 0.528564 20.9137C0.529564 27.6868 3.87205 34 9.47394 37.8248C10.0254 39.8774 11.901 41.3952 14.1319 41.3952C14.7351 41.3952 15.3194 41.2811 15.8766 41.0665C16.6261 41.3138 17.4017 41.5193 18.1731 41.678C17.9558 42.3005 17.6379 42.889 17.3349 43.4003C17.3349 43.4003 17.3429 43.3981 17.353 43.3959C17.3462 43.4003 17.3408 43.4031 17.3349 43.4063L17.7617 43.8329C17.872 43.7744 17.9941 43.7369 18.1272 43.7369C18.5488 43.7369 18.8915 44.0804 18.8915 44.5036C18.8915 44.9246 18.5488 45.2692 18.1272 45.2692C17.7582 45.2692 17.4348 45.0335 17.2662 44.7797C17.2662 44.7797 17.1662 45.1253 17.1662 45.5789C17.1632 47.05 18.7677 48.7314 20.9933 49.4375C23.2188 48.7461 24.8234 47.0533 24.8225 45.581C24.8225 45.0751 24.7212 44.7797 24.7212 44.7797C24.5506 44.9854 24.2739 45.2692 23.8563 45.2692C23.4337 45.2692 23.0914 44.9246 23.0914 44.5036C23.0914 44.0812 23.4337 43.7369 23.8563 43.7369C24.0034 43.7369 24.1395 43.7805 24.2571 43.855L24.6719 43.4391C24.6825 43.4424 24.688 43.4429 24.688 43.4429C24.4529 42.8829 24.2822 42.3676 24.1652 41.8716C27.8514 41.376 30.9623 39.8153 33.4346 37.2144L33.4326 37.2122C38.5782 33.3011 41.5286 27.3685 41.5286 20.9137ZM14.1328 40.8193C11.8054 40.8193 9.91197 38.9198 9.91197 36.5855C9.91197 35.8537 10.0989 35.1651 10.4253 34.5635C10.6418 34.762 10.8742 34.966 11.1161 35.1728C10.9104 35.6077 10.7925 36.0895 10.7925 36.5993C10.7925 37.8698 11.4324 38.9184 12.6451 39.6342C13.34 40.0437 14.1281 40.4151 14.9629 40.7384C14.69 40.792 14.4144 40.8193 14.1328 40.8193ZM21.0291 34.6588C20.1512 34.6588 19.2849 34.5743 18.4375 34.4119C17.6207 32.8077 15.9433 31.7739 14.1327 31.7739C13.6879 31.7739 13.2587 31.8407 12.8505 31.9522C9.36853 29.3651 7.29267 25.2511 7.29267 20.9136C7.29267 13.3348 13.4544 7.16833 21.029 7.16833C28.6025 7.16833 34.7653 13.3348 34.7653 20.9136C34.7654 28.4919 28.6026 34.6588 21.0291 34.6588ZM24.0853 34.903C23.673 35.491 23.4294 36.3091 23.3562 37.1361C22.056 36.8014 20.8738 36.3502 19.8458 35.8815C20.0413 35.5019 20.6029 35.2339 21.0284 35.2339C22.0782 35.2339 23.1001 35.117 24.0853 34.903ZM19.7313 35.1739C19.5567 35.3039 19.4153 35.4597 19.3159 35.6299C18.7978 35.3794 18.1453 35.0535 17.7185 34.8151C18.3233 34.9484 19.1108 35.117 19.7313 35.1739ZM14.1328 32.3505C15.5475 32.3505 16.8703 33.0762 17.6469 34.2385C16.966 34.0661 16.2998 33.8416 15.6485 33.5648L15.6464 33.568L15.626 33.556C15.1699 33.3415 14.6826 33.2332 14.1762 33.2332C13.05 33.2332 12.0527 33.7847 11.4356 34.6313C11.1771 34.4874 10.9184 34.3364 10.6641 34.1783C11.4269 33.0747 12.6959 32.3505 14.1328 32.3505ZM23.8573 43.1466C23.1012 43.1466 22.4806 43.6815 22.4806 44.5036C22.4806 45.3063 23.11 45.8577 23.8573 45.8577C23.9696 45.8577 24.0787 45.839 24.1833 45.8129C24.0275 46.9501 22.7021 48.2233 20.9944 48.7937C19.3015 48.2271 17.9772 46.944 17.802 45.8129C17.9072 45.8402 18.0148 45.8577 18.1285 45.8577C18.943 45.8577 19.5035 45.2878 19.5035 44.5036C19.5035 43.7531 18.9163 43.1662 18.1588 43.1504C18.3888 42.726 18.6104 42.2763 18.7744 41.7936C19.7146 41.958 20.6405 42.0466 21.5015 42.0466C22.2081 42.0466 22.8924 42.0083 23.563 41.9405C23.6513 42.3279 23.7831 42.7346 23.939 43.1536C23.9114 43.1517 23.8842 43.1466 23.8573 43.1466ZM21.5008 41.4712C18.7521 41.4712 15.3206 40.536 12.9635 39.1452C12.2508 38.7234 11.3976 37.9396 11.3976 36.6003C11.3976 36.2392 11.4687 35.8924 11.5942 35.5758C12.4741 36.3034 13.3823 36.9858 13.9546 37.298C14.085 37.3692 14.1606 37.4053 14.3151 37.4053C14.6801 37.4053 14.9774 37.1066 14.9774 36.7391C14.9774 36.4592 14.8262 36.2309 14.5736 36.1205C14.0854 35.9083 13.0654 35.4861 11.966 34.9155C12.4748 34.2453 13.2753 33.8086 14.1762 33.8086C14.5883 33.8086 14.9849 33.8972 15.3541 34.0722L16.109 34.5118C18.5045 35.976 24.6671 39.7298 32.108 37.6656C29.2837 40.2143 25.8044 41.4712 21.5008 41.4712ZM33.042 36.773C29.7112 37.9522 26.6031 37.8715 23.9511 37.2789C24.0378 36.0943 24.5287 34.8281 25.2772 34.5917C31.1186 32.7798 35.3723 27.3339 35.3723 20.9137C35.3723 13.0166 28.9372 6.5923 21.0291 6.5923C13.1205 6.5923 6.68698 13.0166 6.68698 20.9137C6.68698 25.3064 8.73686 29.479 12.1894 32.1842C11.3709 32.5446 10.6705 33.1281 10.1649 33.8528C9.90358 33.675 9.65149 33.4902 9.41759 33.2977L9.28719 33.4284C9.44326 33.6177 9.68676 33.8677 9.97741 34.1455C9.55267 34.8609 9.30628 35.6944 9.30628 36.5848C9.30628 36.7234 9.31497 36.8588 9.32686 36.995C4.18798 33.2488 1.13445 27.2938 1.13445 20.9129C1.13425 9.94092 10.0595 1.01393 21.0291 1.01393C31.9988 1.01393 40.9227 9.94092 40.9227 20.9137C40.9227 27.1983 38.0502 32.973 33.042 36.773Z" fill="#13131A"/>
</svg>
