<svg width="41" height="40" viewBox="0 0 41 40" fill="none" xmlns="http://www.w3.org/2000/svg">
<g opacity="0.3">
<path d="M20.2639 39.73C9.3503 39.73 0.471436 30.8518 0.471436 19.9375C0.471436 9.02388 9.3503 0.14502 20.2639 0.14502C31.1782 0.14502 40.0571 9.02388 40.0571 19.9375C40.0571 30.8518 31.1782 39.73 20.2639 39.73ZM20.2639 1.34907C10.0141 1.34907 1.67549 9.68834 1.67549 19.9375C1.67549 30.1873 10.0141 38.5266 20.2639 38.5266C30.5137 38.5266 38.8524 30.1873 38.8524 19.9375C38.8524 9.68834 30.5137 1.34907 20.2639 1.34907Z" fill="#13131A"/>
<path d="M12.6921 13.9241C16.0288 13.9241 18.4005 16.4476 18.4005 19.9374C18.4005 23.4272 16.0288 25.9514 12.6921 25.9514C9.35414 25.9514 7 23.4279 7 19.9374C7 16.4476 9.35414 13.9241 12.6921 13.9241ZM12.6921 24.7486C15.2671 24.7486 17.0622 22.7327 17.0622 19.9374C17.0622 17.1422 15.2665 15.1262 12.6921 15.1262C10.1165 15.1262 8.33832 17.1422 8.33832 19.9374C8.33832 22.7327 10.1165 24.7486 12.6921 24.7486Z" fill="#13131A"/>
<path d="M24.2956 15.126C22.8556 15.126 21.7883 15.8545 21.7883 17.1589C21.7883 18.1415 22.3474 18.6666 23.7027 18.9546L25.6847 19.3612C27.6837 19.7678 28.5985 20.9869 28.5985 22.5291C28.5985 24.6812 26.8367 25.9512 24.5164 25.9512C22.161 25.9512 20.5347 24.6467 20.1112 22.5636L21.4502 22.4275C21.8229 24.0036 23.025 24.7484 24.5321 24.7484C26.0737 24.7484 27.2602 23.986 27.2602 22.5963C27.2602 21.5635 26.5826 20.8689 25.1934 20.5979L23.1436 20.1913C21.7883 19.9196 20.45 18.9885 20.45 17.2097C20.45 15.2452 22.0588 13.9238 24.3301 13.9238C26.4308 13.9238 27.9548 15.0589 28.4636 17.0742L27.1416 17.2267C26.7689 16.0747 25.9388 15.126 24.2956 15.126Z" fill="#13131A"/>
<path d="M32.3248 25.7818H30.9865V14.0927H32.3248V25.7818Z" fill="#13131A"/>
</g>
</svg>
