<svg width="180" height="32" viewBox="0 0 180 32" fill="none" xmlns="http://www.w3.org/2000/svg">
<g clip-path="url(#clip0_4322_17555)">
<path d="M12.1 31.8C9.7 31.8 7.6 31.3 5.8 30.4C4 29.4 2.6 28.1 1.5 26.3C0.5 24.5 0 22.4 0 19.9V1.3H7.1V20.1C7.1 21.1 7.3 22.1 7.7 22.9C8.1 23.7 8.7 24.4 9.4 24.9C10.2 25.4 11.1 25.6 12.1 25.6C13.1 25.6 14 25.4 14.8 24.9C15.5 24.4 16.1 23.8 16.5 22.9C16.9 22.1 17.1 21.1 17.1 20.1V1.3H24.2V20.1C24.2 21.1 24.4 22.1 24.8 22.9C25.2 23.7 25.8 24.4 26.5 24.9C27.3 25.4 28.2 25.6 29.2 25.6C30.2 25.6 31.1 25.4 31.9 24.9C32.7 24.4 33.2 23.8 33.6 22.9C34 22.1 34.2 21.1 34.2 20.1V1.3H41.3V19.9C41.3 22.4 40.8 24.5 39.8 26.3C38.8 28.1 37.3 29.5 35.5 30.4C33.7 31.4 31.6 31.8 29.2 31.8C28 31.8 26.9 31.7 25.9 31.4C24.9 31.1 23.9 30.7 23 30.2C22.1 29.7 21.3 29 20.6 28.2C19.9 29 19.1 29.6 18.2 30.2C17.3 30.7 16.4 31.1 15.3 31.4C14.4 31.7 13.3 31.8 12.1 31.8Z" fill="black"/>
<path d="M57 31.8C54.7 31.8 52.7 31.3 50.9 30.3C49.1 29.3 47.7 27.9 46.6 26.2C45.6 24.5 45 22.5 45 20.3C45 18.1 45.5 16.1 46.6 14.4C47.6 12.7 49.1 11.3 50.9 10.3C52.7 9.3 54.7 8.8 57 8.8C59.3 8.8 61.3 9.3 63.1 10.3C64.9 11.3 66.3 12.7 67.3 14.4C68.3 16.1 68.9 18.1 68.9 20.3C68.9 22.5 68.4 24.4 67.3 26.2C66.3 27.9 64.8 29.3 63 30.3C61.3 31.3 59.3 31.8 57 31.8ZM57 26.1C58.1 26.1 59 25.8 59.7 25.3C60.5 24.8 61.1 24.1 61.5 23.2C61.9 22.3 62.1 21.4 62.1 20.3C62.1 19.2 61.9 18.3 61.5 17.4C61.1 16.5 60.5 15.9 59.7 15.3C58.9 14.8 58 14.5 57 14.5C55.9 14.5 55 14.8 54.2 15.3C53.4 15.8 52.8 16.5 52.4 17.4C52 18.3 51.8 19.2 51.8 20.3C51.8 21.4 52 22.4 52.4 23.2C52.8 24.1 53.4 24.7 54.2 25.3C55.1 25.8 56 26.1 57 26.1Z" fill="black"/>
<path d="M72.7 31.3V15.8C72.7 13.8 73.3 12.2 74.4 11.1C75.5 9.99999 77.1 9.39999 79.2 9.39999H85.6V14.8H80.8C80.4 14.8 80.1 14.9 79.8 15.2C79.5 15.5 79.4 15.8 79.4 16.3V31.4H72.7V31.3Z" fill="black"/>
<path d="M88.5 31.3V0H95.2V17.6H98.1L103.1 9.3H110.5L104.6 18.5C106.3 19.2 107.7 20.3 108.6 21.8C109.6 23.3 110 25 110 27V31.4H103.3V27C103.3 26.2 103.1 25.5 102.7 24.8C102.3 24.2 101.8 23.6 101.2 23.3C100.6 22.9 99.9 22.7 99.1 22.7H95.2V31.3H88.5Z" fill="black"/>
<path d="M125.9 31.3C123.4 31.3 121.2 30.8 119.3 29.9C117.4 29 115.9 27.7 114.9 26C113.9 24.4 113.3 22.4 113.3 20.3C113.3 17.9 113.8 15.8 114.8 14.1C115.8 12.4 117.1 11.1 118.8 10.1C120.5 9.2 122.3 8.7 124.4 8.7C126.7 8.7 128.7 9.2 130.2 10.2C131.8 11.2 132.9 12.5 133.7 14.2C134.5 15.9 134.9 17.8 134.9 19.9C134.9 20.3 134.9 20.7 134.8 21.2C134.8 21.7 134.7 22.1 134.6 22.4H120.2C120.4 23.1 120.7 23.8 121.2 24.3C121.7 24.8 122.3 25.2 123 25.4C123.7 25.6 124.6 25.8 125.5 25.8H132.2V31.3H125.9ZM120.2 18.3H128.6C128.5 17.8 128.5 17.4 128.3 17C128.2 16.6 128 16.2 127.8 15.9C127.6 15.6 127.3 15.3 127 15C126.7 14.8 126.3 14.6 125.9 14.4C125.5 14.3 125 14.2 124.5 14.2C123.8 14.2 123.3 14.3 122.7 14.5C122.2 14.7 121.8 15 121.4 15.4C121.1 15.8 120.8 16.2 120.6 16.7C120.4 17.3 120.3 17.8 120.2 18.3Z" fill="black"/>
<path d="M138.8 31.3V18.7C138.8 16.9 139.2 15.2 140.1 13.7C141 12.2 142.3 11 143.9 10.1C145.5 9.2 147.5 8.8 149.8 8.8C152.1 8.8 154 9.2 155.7 10.1C157.3 11 158.6 12.2 159.4 13.7C160.3 15.2 160.7 16.8 160.7 18.7V31.4H154V18.8C154 18 153.8 17.3 153.4 16.7C153 16.1 152.5 15.5 151.9 15.2C151.3 14.8 150.5 14.6 149.7 14.6C148.9 14.6 148.1 14.8 147.5 15.2C146.9 15.6 146.3 16.1 146 16.7C145.6 17.3 145.4 18.1 145.4 18.8V31.3H138.8Z" fill="black"/>
<path d="M163.6 14.8V9.29999H180V14.8H163.6ZM173.7 31.3C171.7 31.3 170.1 30.7 168.9 29.6C167.8 28.4 167.2 26.9 167.2 24.9V3.89999H173.9V24.5C173.9 24.8 174 25.1 174.3 25.4C174.5 25.6 174.8 25.8 175.2 25.8H180V31.4H173.7V31.3Z" fill="black"/>
</g>
<defs>
<clipPath id="clip0_4322_17555">
<rect width="180" height="31.8" fill="white"/>
</clipPath>
</defs>
</svg>
